M48
; DRILL file {KiCad 9.0.4-9.0.4-0~ubuntu22.04.1} date 2025-09-06T14:30:12-0500
; FORMAT={-:-/ absolute / metric / decimal}
; #@! TF.CreationDate,2025-09-06T14:30:12-05:00
; #@! TF.GenerationSoftware,Kicad,Pcbnew,9.0.4-9.0.4-0~ubuntu22.04.1
; #@! TF.FileFunction,Plated,1,4,PTH
FMAT,2
METRIC
; #@! TA.AperFunction,Plated,PTH,ComponentDrill
T1C0.500
; #@! TA.AperFunction,Plated,PTH,ComponentDrill
T2C0.800
; #@! TA.AperFunction,Plated,PTH,ComponentDrill
T3C1.000
; #@! TA.AperFunction,Plated,PTH,ComponentDrill
T4C1.020
; #@! TA.AperFunction,Plated,PTH,ComponentDrill
T5C1.190
; #@! TA.AperFunction,Plated,PTH,ComponentDrill
T6C1.600
%
G90
G05
T1
X65.325Y-90.79
X66.325Y-90.79
X67.325Y-90.79
X112.325Y-80.58
X112.325Y-103.79
X113.325Y-80.58
X113.325Y-103.79
X114.325Y-80.58
X114.325Y-103.79
X115.325Y-80.58
X115.325Y-103.79
X116.325Y-80.58
T2
X80.825Y-67.29
X80.825Y-74.91
T3
X66.245Y-61.34
X66.245Y-63.88
X68.785Y-61.34
X68.785Y-63.88
X70.765Y-69.41
X70.765Y-71.95
X71.325Y-61.34
X71.325Y-63.88
X73.305Y-69.41
X73.305Y-71.95
X73.865Y-61.34
X73.865Y-63.88
X76.405Y-61.34
X76.405Y-63.88
X78.945Y-61.34
X78.945Y-63.88
X81.485Y-61.34
X81.485Y-63.88
X84.025Y-61.34
X84.025Y-63.88
X86.565Y-61.34
X86.565Y-63.88
X89.105Y-61.34
X89.105Y-63.88
X91.645Y-61.34
X91.645Y-63.88
X93.025Y-72.39
X94.185Y-61.34
X94.185Y-63.88
X95.565Y-72.39
X96.725Y-61.34
X96.725Y-63.88
X99.265Y-61.34
X99.265Y-63.88
X101.805Y-61.34
X101.805Y-63.88
X104.345Y-61.34
X104.345Y-63.88
X106.885Y-61.34
X106.885Y-63.88
X109.425Y-61.34
X109.425Y-63.88
X111.965Y-61.34
X111.965Y-63.88
X114.505Y-61.34
X114.505Y-63.88
T4
X158.19Y-140.875
X160.73Y-140.875
X163.27Y-140.875
X165.81Y-140.875
T5
X73.825Y-102.79
X76.365Y-102.79
X102.825Y-103.29
X105.365Y-103.29
T6
X185.545Y-46.0
X185.545Y-65.3
X185.545Y-84.6
X258.445Y-46.0
X258.445Y-65.3
X258.445Y-84.6
M30
