G04 #@! TF.GenerationSoftware,KiCad,Pcbnew,9.0.4-9.0.4-0~ubuntu22.04.1*
G04 #@! TF.CreationDate,2025-09-06T14:27:50-05:00*
G04 #@! TF.ProjectId,Lab1_PCB,4c616231-5f50-4434-922e-6b696361645f,rev?*
G04 #@! TF.SameCoordinates,Original*
G04 #@! TF.FileFunction,Paste,Top*
G04 #@! TF.FilePolarity,Positive*
%FSLAX46Y46*%
G04 Gerber Fmt 4.6, Leading zero omitted, Abs format (unit mm)*
G04 Created by KiCad (PCBNEW 9.0.4-9.0.4-0~ubuntu22.04.1) date 2025-09-06 14:27:50*
%MOMM*%
%LPD*%
G01*
G04 APERTURE LIST*
G04 Aperture macros list*
%AMRoundRect*
0 Rectangle with rounded corners*
0 $1 Rounding radius*
0 $2 $3 $4 $5 $6 $7 $8 $9 X,Y pos of 4 corners*
0 Add a 4 corners polygon primitive as box body*
4,1,4,$2,$3,$4,$5,$6,$7,$8,$9,$2,$3,0*
0 Add four circle primitives for the rounded corners*
1,1,$1+$1,$2,$3*
1,1,$1+$1,$4,$5*
1,1,$1+$1,$6,$7*
1,1,$1+$1,$8,$9*
0 Add four rect primitives between the rounded corners*
20,1,$1+$1,$2,$3,$4,$5,0*
20,1,$1+$1,$4,$5,$6,$7,0*
20,1,$1+$1,$6,$7,$8,$9,0*
20,1,$1+$1,$8,$9,$2,$3,0*%
G04 Aperture macros list end*
%ADD10C,1.905000*%
%ADD11RoundRect,0.190500X-0.762000X-0.444500X0.762000X-0.444500X0.762000X0.444500X-0.762000X0.444500X0*%
%ADD12R,0.845000X1.000000*%
%ADD13R,1.550000X0.600000*%
%ADD14R,1.000000X0.845000*%
%ADD15R,1.060000X0.650000*%
%ADD16R,0.900000X0.800000*%
G04 #@! TA.AperFunction,Profile*
%ADD17C,0.100000*%
G04 #@! TD*
G04 APERTURE END LIST*
D10*
X27324655Y-95834655D03*
X27324655Y-90834655D03*
X27324655Y-93334655D03*
D11*
X148000000Y-36000000D03*
X150000000Y-36000000D03*
X146000000Y-36000000D03*
X144000000Y-36000000D03*
X142000000Y-36000000D03*
X113173267Y-138732155D03*
X115173267Y-138732155D03*
D12*
X71062155Y-74789655D03*
X72987155Y-74789655D03*
X70962155Y-66689655D03*
X72887155Y-66689655D03*
D13*
X102124655Y-70294655D03*
X102124655Y-69024655D03*
X102124655Y-67754655D03*
X102124655Y-66484655D03*
X96724655Y-66484655D03*
X96724655Y-67754655D03*
X96724655Y-69024655D03*
X96724655Y-70294655D03*
D12*
X92762155Y-66389655D03*
X94687155Y-66389655D03*
X98462155Y-72289655D03*
X100387155Y-72289655D03*
X92762155Y-69689655D03*
X94687155Y-69689655D03*
D14*
X66224655Y-73927155D03*
X66224655Y-75852155D03*
D11*
X65673267Y-138732155D03*
X67673267Y-138732155D03*
D15*
X66274655Y-70439655D03*
X66274655Y-71389655D03*
X66274655Y-72339655D03*
X68474655Y-72339655D03*
X68474655Y-71389655D03*
X68474655Y-70439655D03*
D14*
X68524655Y-73927155D03*
X68524655Y-75852155D03*
D12*
X92762155Y-67989655D03*
X94687155Y-67989655D03*
D16*
X67924655Y-68839655D03*
X67924655Y-66939655D03*
X65924655Y-67889655D03*
D17*
X122999995Y-111005236D02*
G75*
G02*
X120000000Y-113999945I-2999951J5247D01*
G01*
X61000000Y-114000000D02*
X120000000Y-114000000D01*
X120000000Y-58000000D02*
G75*
G02*
X123000033Y-61000000I44J-2999989D01*
G01*
X123000000Y-111000000D02*
X123000000Y-61000000D01*
X120000000Y-58000000D02*
X61000000Y-58000000D01*
X58000000Y-61000000D02*
X58000000Y-111000000D01*
X58000000Y-61000000D02*
G75*
G02*
X61000000Y-57999945I3000044J11D01*
G01*
X61000000Y-114000000D02*
G75*
G02*
X58000033Y-111000000I44J3000011D01*
G01*
M02*
