M48
; DRILL file {KiCad 9.0.4-9.0.4-0~ubuntu22.04.1} date 2025-09-06T13:19:23-0500
; FORMAT={-:-/ absolute / metric / decimal}
; #@! TF.CreationDate,2025-09-06T13:19:23-05:00
; #@! TF.GenerationSoftware,Kicad,Pcbnew,9.0.4-9.0.4-0~ubuntu22.04.1
; #@! TF.FileFunction,Plated,1,4,PTH
FMAT,2
METRIC
; #@! TA.AperFunction,Plated,PTH,ComponentDrill
T1C0.500
; #@! TA.AperFunction,Plated,PTH,ComponentDrill
T2C1.000
; #@! TA.AperFunction,Plated,PTH,ComponentDrill
T3C1.020
; #@! TA.AperFunction,Plated,PTH,ComponentDrill
T4C1.190
; #@! TA.AperFunction,Plated,PTH,ComponentDrill
T5C1.600
%
G90
G05
T1
X86.0Y-92.5
X87.0Y-92.5
X88.0Y-92.5
X133.0Y-82.29
X133.0Y-105.5
X134.0Y-82.29
X134.0Y-105.5
X135.0Y-82.29
X135.0Y-105.5
X136.0Y-82.29
X136.0Y-105.5
X137.0Y-82.29
T2
X86.92Y-63.05
X86.92Y-65.59
X89.46Y-63.05
X89.46Y-65.59
X91.44Y-71.12
X91.44Y-73.66
X92.0Y-63.05
X92.0Y-65.59
X93.98Y-71.12
X93.98Y-73.66
X94.54Y-63.05
X94.54Y-65.59
X97.08Y-63.05
X97.08Y-65.59
X99.62Y-63.05
X99.62Y-65.59
X102.16Y-63.05
X102.16Y-65.59
X104.7Y-63.05
X104.7Y-65.59
X107.24Y-63.05
X107.24Y-65.59
X109.78Y-63.05
X109.78Y-65.59
X112.32Y-63.05
X112.32Y-65.59
X113.7Y-74.1
X114.86Y-63.05
X114.86Y-65.59
X116.24Y-74.1
X117.4Y-63.05
X117.4Y-65.59
X119.94Y-63.05
X119.94Y-65.59
X122.48Y-63.05
X122.48Y-65.59
X125.02Y-63.05
X125.02Y-65.59
X127.56Y-63.05
X127.56Y-65.59
X130.1Y-63.05
X130.1Y-65.59
X132.64Y-63.05
X132.64Y-65.59
X135.18Y-63.05
X135.18Y-65.59
T3
X168.0Y-114.0
X170.54Y-114.0
X173.08Y-114.0
X175.62Y-114.0
T4
X86.5Y-125.5
X89.04Y-125.5
X133.46Y-126.02
X136.0Y-126.02
T5
X151.655Y-31.7
X151.655Y-51.0
X151.655Y-70.3
X224.555Y-31.7
X224.555Y-51.0
X224.555Y-70.3
M30
