G04 #@! TF.GenerationSoftware,KiCad,Pcbnew,9.0.4-9.0.4-0~ubuntu22.04.1*
G04 #@! TF.CreationDate,2025-09-06T14:27:56-05:00*
G04 #@! TF.ProjectId,Lab1_PCB,4c616231-5f50-4434-922e-6b696361645f,rev?*
G04 #@! TF.SameCoordinates,Original*
G04 #@! TF.FileFunction,Legend,Bot*
G04 #@! TF.FilePolarity,Positive*
%FSLAX46Y46*%
G04 Gerber Fmt 4.6, Leading zero omitted, Abs format (unit mm)*
G04 Created by KiCad (PCBNEW 9.0.4-9.0.4-0~ubuntu22.04.1) date 2025-09-06 14:27:56*
%MOMM*%
%LPD*%
G01*
G04 APERTURE LIST*
%ADD10C,0.150000*%
%ADD11C,0.120000*%
G04 #@! TA.AperFunction,Profile*
%ADD12C,0.100000*%
G04 #@! TD*
G04 APERTURE END LIST*
D10*
X62929474Y-62276321D02*
X63643759Y-62276321D01*
X63643759Y-62276321D02*
X63786616Y-62228702D01*
X63786616Y-62228702D02*
X63881855Y-62133464D01*
X63881855Y-62133464D02*
X63929474Y-61990607D01*
X63929474Y-61990607D02*
X63929474Y-61895369D01*
X62929474Y-62657274D02*
X62929474Y-63276321D01*
X62929474Y-63276321D02*
X63310426Y-62942988D01*
X63310426Y-62942988D02*
X63310426Y-63085845D01*
X63310426Y-63085845D02*
X63358045Y-63181083D01*
X63358045Y-63181083D02*
X63405664Y-63228702D01*
X63405664Y-63228702D02*
X63500902Y-63276321D01*
X63500902Y-63276321D02*
X63738997Y-63276321D01*
X63738997Y-63276321D02*
X63834235Y-63228702D01*
X63834235Y-63228702D02*
X63881855Y-63181083D01*
X63881855Y-63181083D02*
X63929474Y-63085845D01*
X63929474Y-63085845D02*
X63929474Y-62800131D01*
X63929474Y-62800131D02*
X63881855Y-62704893D01*
X63881855Y-62704893D02*
X63834235Y-62657274D01*
D11*
X115834655Y-60009655D02*
X115834655Y-65209655D01*
X67514655Y-65209655D02*
X115834655Y-65209655D01*
X67514655Y-62609655D02*
X67514655Y-65209655D01*
X64914655Y-65209655D02*
X66244655Y-65209655D01*
X64914655Y-63879655D02*
X64914655Y-65209655D01*
X64914655Y-62609655D02*
X67514655Y-62609655D01*
X64914655Y-60009655D02*
X115834655Y-60009655D01*
X64914655Y-60009655D02*
X64914655Y-62609655D01*
D12*
X122999995Y-111005236D02*
G75*
G02*
X120000000Y-113999945I-2999951J5247D01*
G01*
X61000000Y-114000000D02*
X120000000Y-114000000D01*
X120000000Y-58000000D02*
G75*
G02*
X123000033Y-61000000I44J-2999989D01*
G01*
X123000000Y-111000000D02*
X123000000Y-61000000D01*
X120000000Y-58000000D02*
X61000000Y-58000000D01*
X58000000Y-61000000D02*
X58000000Y-111000000D01*
X58000000Y-61000000D02*
G75*
G02*
X61000000Y-57999945I3000044J11D01*
G01*
X61000000Y-114000000D02*
G75*
G02*
X58000033Y-111000000I44J3000011D01*
G01*
M02*
