G04 #@! TF.GenerationSoftware,KiCad,Pcbnew,9.0.4-9.0.4-0~ubuntu22.04.1*
G04 #@! TF.CreationDate,2025-09-06T14:27:47-05:00*
G04 #@! TF.ProjectId,Lab1_PCB,4c616231-5f50-4434-922e-6b696361645f,rev?*
G04 #@! TF.SameCoordinates,Original*
G04 #@! TF.FileFunction,Copper,L4,Bot*
G04 #@! TF.FilePolarity,Positive*
%FSLAX46Y46*%
G04 Gerber Fmt 4.6, Leading zero omitted, Abs format (unit mm)*
G04 Created by KiCad (PCBNEW 9.0.4-9.0.4-0~ubuntu22.04.1) date 2025-09-06 14:27:47*
%MOMM*%
%LPD*%
G01*
G04 APERTURE LIST*
G04 Aperture macros list*
%AMRoundRect*
0 Rectangle with rounded corners*
0 $1 Rounding radius*
0 $2 $3 $4 $5 $6 $7 $8 $9 X,Y pos of 4 corners*
0 Add a 4 corners polygon primitive as box body*
4,1,4,$2,$3,$4,$5,$6,$7,$8,$9,$2,$3,0*
0 Add four circle primitives for the rounded corners*
1,1,$1+$1,$2,$3*
1,1,$1+$1,$4,$5*
1,1,$1+$1,$6,$7*
1,1,$1+$1,$8,$9*
0 Add four rect primitives between the rounded corners*
20,1,$1+$1,$2,$3,$4,$5,0*
20,1,$1+$1,$4,$5,$6,$7,0*
20,1,$1+$1,$6,$7,$8,$9,0*
20,1,$1+$1,$8,$9,$2,$3,0*%
G04 Aperture macros list end*
G04 #@! TA.AperFunction,ComponentPad*
%ADD10C,1.530000*%
G04 #@! TD*
G04 #@! TA.AperFunction,ComponentPad*
%ADD11R,1.600000X1.600000*%
G04 #@! TD*
G04 #@! TA.AperFunction,ComponentPad*
%ADD12O,1.600000X1.600000*%
G04 #@! TD*
G04 #@! TA.AperFunction,ComponentPad*
%ADD13R,0.850000X0.850000*%
G04 #@! TD*
G04 #@! TA.AperFunction,ComponentPad*
%ADD14O,0.850000X0.850000*%
G04 #@! TD*
G04 #@! TA.AperFunction,WasherPad*
%ADD15C,3.000000*%
G04 #@! TD*
G04 #@! TA.AperFunction,ComponentPad*
%ADD16R,1.700000X1.700000*%
G04 #@! TD*
G04 #@! TA.AperFunction,ComponentPad*
%ADD17O,1.700000X1.700000*%
G04 #@! TD*
G04 #@! TA.AperFunction,ComponentPad*
%ADD18RoundRect,0.250000X-0.620000X-0.845000X0.620000X-0.845000X0.620000X0.845000X-0.620000X0.845000X0*%
G04 #@! TD*
G04 #@! TA.AperFunction,ComponentPad*
%ADD19O,1.740000X2.190000*%
G04 #@! TD*
G04 #@! TA.AperFunction,ComponentPad*
%ADD20C,2.400000*%
G04 #@! TD*
G04 #@! TA.AperFunction,Conductor*
%ADD21C,0.250000*%
G04 #@! TD*
G04 #@! TA.AperFunction,Profile*
%ADD22C,0.100000*%
G04 #@! TD*
G04 APERTURE END LIST*
D10*
X165810000Y-140875000D03*
X163270000Y-140875000D03*
X160730000Y-140875000D03*
X158190000Y-140875000D03*
D11*
X80824655Y-74909655D03*
D12*
X80824655Y-67289655D03*
D13*
X116324655Y-80579655D03*
D14*
X115324655Y-80579655D03*
X114324655Y-80579655D03*
X113324655Y-80579655D03*
X112324655Y-80579655D03*
D15*
X119354655Y-111599655D03*
D16*
X93024655Y-72389655D03*
D17*
X95564655Y-72389655D03*
D15*
X61364655Y-111609655D03*
D16*
X73304655Y-71949655D03*
D17*
X70764655Y-71949655D03*
X73304655Y-69409655D03*
X70764655Y-69409655D03*
D15*
X61364655Y-62599655D03*
D13*
X67324655Y-90789655D03*
D14*
X66324655Y-90789655D03*
X65324655Y-90789655D03*
D18*
X73824655Y-102789655D03*
D19*
X76364655Y-102789655D03*
D13*
X115324655Y-103789655D03*
D14*
X114324655Y-103789655D03*
X113324655Y-103789655D03*
X112324655Y-103789655D03*
D18*
X102824655Y-103289655D03*
D19*
X105364655Y-103289655D03*
D15*
X119364655Y-62619655D03*
D17*
X114504655Y-61339655D03*
X114504655Y-63879655D03*
X111964655Y-61339655D03*
X111964655Y-63879655D03*
X109424655Y-61339655D03*
X109424655Y-63879655D03*
X106884655Y-61339655D03*
X106884655Y-63879655D03*
X104344655Y-61339655D03*
X104344655Y-63879655D03*
X101804655Y-61339655D03*
X101804655Y-63879655D03*
X99264655Y-61339655D03*
X99264655Y-63879655D03*
X96724655Y-61339655D03*
X96724655Y-63879655D03*
X94184655Y-61339655D03*
X94184655Y-63879655D03*
X91644655Y-61339655D03*
X91644655Y-63879655D03*
X89104655Y-61339655D03*
X89104655Y-63879655D03*
X86564655Y-61339655D03*
X86564655Y-63879655D03*
X84024655Y-61339655D03*
X84024655Y-63879655D03*
X81484655Y-61339655D03*
X81484655Y-63879655D03*
X78944655Y-61339655D03*
X78944655Y-63879655D03*
X76404655Y-61339655D03*
X76404655Y-63879655D03*
X73864655Y-61339655D03*
X73864655Y-63879655D03*
X71324655Y-61339655D03*
X71324655Y-63879655D03*
X68784655Y-61339655D03*
X68784655Y-63879655D03*
X66244655Y-61339655D03*
D16*
X66244655Y-63879655D03*
D20*
X185545000Y-46000000D03*
X258445000Y-46000000D03*
X185545000Y-65300000D03*
X258445000Y-65300000D03*
X185545000Y-84600000D03*
X258445000Y-84600000D03*
D21*
X99264655Y-64349655D02*
X99264655Y-63879655D01*
D22*
X122999995Y-111005236D02*
G75*
G02*
X120000000Y-113999945I-2999951J5247D01*
G01*
X61000000Y-114000000D02*
X120000000Y-114000000D01*
X120000000Y-58000000D02*
G75*
G02*
X123000033Y-61000000I44J-2999989D01*
G01*
X123000000Y-111000000D02*
X123000000Y-61000000D01*
X120000000Y-58000000D02*
X61000000Y-58000000D01*
X58000000Y-61000000D02*
X58000000Y-111000000D01*
X58000000Y-61000000D02*
G75*
G02*
X61000000Y-57999945I3000044J11D01*
G01*
X61000000Y-114000000D02*
G75*
G02*
X58000033Y-111000000I44J3000011D01*
G01*
M02*
