G04 #@! TF.GenerationSoftware,KiCad,Pcbnew,9.0.4-9.0.4-0~ubuntu22.04.1*
G04 #@! TF.CreationDate,2025-09-06T14:27:53-05:00*
G04 #@! TF.ProjectId,Lab1_PCB,4c616231-5f50-4434-922e-6b696361645f,rev?*
G04 #@! TF.SameCoordinates,Original*
G04 #@! TF.FileFunction,Legend,Top*
G04 #@! TF.FilePolarity,Positive*
%FSLAX46Y46*%
G04 Gerber Fmt 4.6, Leading zero omitted, Abs format (unit mm)*
G04 Created by KiCad (PCBNEW 9.0.4-9.0.4-0~ubuntu22.04.1) date 2025-09-06 14:27:53*
%MOMM*%
%LPD*%
G01*
G04 APERTURE LIST*
%ADD10C,0.100000*%
%ADD11C,0.150000*%
%ADD12C,0.130000*%
%ADD13C,0.127000*%
%ADD14C,0.120000*%
G04 #@! TA.AperFunction,Profile*
%ADD15C,0.100000*%
G04 #@! TD*
G04 APERTURE END LIST*
D10*
X19491320Y-101625407D02*
X19491320Y-102625407D01*
X19491320Y-101673026D02*
X19586558Y-101625407D01*
X19586558Y-101625407D02*
X19777034Y-101625407D01*
X19777034Y-101625407D02*
X19872272Y-101673026D01*
X19872272Y-101673026D02*
X19919891Y-101720645D01*
X19919891Y-101720645D02*
X19967510Y-101815883D01*
X19967510Y-101815883D02*
X19967510Y-102101597D01*
X19967510Y-102101597D02*
X19919891Y-102196835D01*
X19919891Y-102196835D02*
X19872272Y-102244455D01*
X19872272Y-102244455D02*
X19777034Y-102292074D01*
X19777034Y-102292074D02*
X19586558Y-102292074D01*
X19586558Y-102292074D02*
X19491320Y-102244455D01*
X20396082Y-102292074D02*
X20396082Y-101292074D01*
X20824653Y-102292074D02*
X20824653Y-101768264D01*
X20824653Y-101768264D02*
X20777034Y-101673026D01*
X20777034Y-101673026D02*
X20681796Y-101625407D01*
X20681796Y-101625407D02*
X20538939Y-101625407D01*
X20538939Y-101625407D02*
X20443701Y-101673026D01*
X20443701Y-101673026D02*
X20396082Y-101720645D01*
X21443701Y-102292074D02*
X21348463Y-102244455D01*
X21348463Y-102244455D02*
X21300844Y-102196835D01*
X21300844Y-102196835D02*
X21253225Y-102101597D01*
X21253225Y-102101597D02*
X21253225Y-101815883D01*
X21253225Y-101815883D02*
X21300844Y-101720645D01*
X21300844Y-101720645D02*
X21348463Y-101673026D01*
X21348463Y-101673026D02*
X21443701Y-101625407D01*
X21443701Y-101625407D02*
X21586558Y-101625407D01*
X21586558Y-101625407D02*
X21681796Y-101673026D01*
X21681796Y-101673026D02*
X21729415Y-101720645D01*
X21729415Y-101720645D02*
X21777034Y-101815883D01*
X21777034Y-101815883D02*
X21777034Y-102101597D01*
X21777034Y-102101597D02*
X21729415Y-102196835D01*
X21729415Y-102196835D02*
X21681796Y-102244455D01*
X21681796Y-102244455D02*
X21586558Y-102292074D01*
X21586558Y-102292074D02*
X21443701Y-102292074D01*
X22062749Y-101625407D02*
X22443701Y-101625407D01*
X22205606Y-101292074D02*
X22205606Y-102149216D01*
X22205606Y-102149216D02*
X22253225Y-102244455D01*
X22253225Y-102244455D02*
X22348463Y-102292074D01*
X22348463Y-102292074D02*
X22443701Y-102292074D01*
X22919892Y-102292074D02*
X22824654Y-102244455D01*
X22824654Y-102244455D02*
X22777035Y-102196835D01*
X22777035Y-102196835D02*
X22729416Y-102101597D01*
X22729416Y-102101597D02*
X22729416Y-101815883D01*
X22729416Y-101815883D02*
X22777035Y-101720645D01*
X22777035Y-101720645D02*
X22824654Y-101673026D01*
X22824654Y-101673026D02*
X22919892Y-101625407D01*
X22919892Y-101625407D02*
X23062749Y-101625407D01*
X23062749Y-101625407D02*
X23157987Y-101673026D01*
X23157987Y-101673026D02*
X23205606Y-101720645D01*
X23205606Y-101720645D02*
X23253225Y-101815883D01*
X23253225Y-101815883D02*
X23253225Y-102101597D01*
X23253225Y-102101597D02*
X23205606Y-102196835D01*
X23205606Y-102196835D02*
X23157987Y-102244455D01*
X23157987Y-102244455D02*
X23062749Y-102292074D01*
X23062749Y-102292074D02*
X22919892Y-102292074D01*
X23681797Y-102292074D02*
X23681797Y-101625407D01*
X23681797Y-101292074D02*
X23634178Y-101339693D01*
X23634178Y-101339693D02*
X23681797Y-101387312D01*
X23681797Y-101387312D02*
X23729416Y-101339693D01*
X23729416Y-101339693D02*
X23681797Y-101292074D01*
X23681797Y-101292074D02*
X23681797Y-101387312D01*
X24157987Y-101625407D02*
X24157987Y-102292074D01*
X24157987Y-101720645D02*
X24205606Y-101673026D01*
X24205606Y-101673026D02*
X24300844Y-101625407D01*
X24300844Y-101625407D02*
X24443701Y-101625407D01*
X24443701Y-101625407D02*
X24538939Y-101673026D01*
X24538939Y-101673026D02*
X24586558Y-101768264D01*
X24586558Y-101768264D02*
X24586558Y-102292074D01*
X24919892Y-101625407D02*
X25300844Y-101625407D01*
X25062749Y-101292074D02*
X25062749Y-102149216D01*
X25062749Y-102149216D02*
X25110368Y-102244455D01*
X25110368Y-102244455D02*
X25205606Y-102292074D01*
X25205606Y-102292074D02*
X25300844Y-102292074D01*
X25396083Y-102387312D02*
X26157987Y-102387312D01*
X26348464Y-102244455D02*
X26443702Y-102292074D01*
X26443702Y-102292074D02*
X26634178Y-102292074D01*
X26634178Y-102292074D02*
X26729416Y-102244455D01*
X26729416Y-102244455D02*
X26777035Y-102149216D01*
X26777035Y-102149216D02*
X26777035Y-102101597D01*
X26777035Y-102101597D02*
X26729416Y-102006359D01*
X26729416Y-102006359D02*
X26634178Y-101958740D01*
X26634178Y-101958740D02*
X26491321Y-101958740D01*
X26491321Y-101958740D02*
X26396083Y-101911121D01*
X26396083Y-101911121D02*
X26348464Y-101815883D01*
X26348464Y-101815883D02*
X26348464Y-101768264D01*
X26348464Y-101768264D02*
X26396083Y-101673026D01*
X26396083Y-101673026D02*
X26491321Y-101625407D01*
X26491321Y-101625407D02*
X26634178Y-101625407D01*
X26634178Y-101625407D02*
X26729416Y-101673026D01*
X27634178Y-101625407D02*
X27634178Y-102292074D01*
X27205607Y-101625407D02*
X27205607Y-102149216D01*
X27205607Y-102149216D02*
X27253226Y-102244455D01*
X27253226Y-102244455D02*
X27348464Y-102292074D01*
X27348464Y-102292074D02*
X27491321Y-102292074D01*
X27491321Y-102292074D02*
X27586559Y-102244455D01*
X27586559Y-102244455D02*
X27634178Y-102196835D01*
X28110369Y-101625407D02*
X28110369Y-102292074D01*
X28110369Y-101720645D02*
X28157988Y-101673026D01*
X28157988Y-101673026D02*
X28253226Y-101625407D01*
X28253226Y-101625407D02*
X28396083Y-101625407D01*
X28396083Y-101625407D02*
X28491321Y-101673026D01*
X28491321Y-101673026D02*
X28538940Y-101768264D01*
X28538940Y-101768264D02*
X28538940Y-102292074D01*
X28872274Y-101625407D02*
X29253226Y-101625407D01*
X29015131Y-102292074D02*
X29015131Y-101434931D01*
X29015131Y-101434931D02*
X29062750Y-101339693D01*
X29062750Y-101339693D02*
X29157988Y-101292074D01*
X29157988Y-101292074D02*
X29253226Y-101292074D01*
X29729417Y-102292074D02*
X29634179Y-102244455D01*
X29634179Y-102244455D02*
X29586560Y-102196835D01*
X29586560Y-102196835D02*
X29538941Y-102101597D01*
X29538941Y-102101597D02*
X29538941Y-101815883D01*
X29538941Y-101815883D02*
X29586560Y-101720645D01*
X29586560Y-101720645D02*
X29634179Y-101673026D01*
X29634179Y-101673026D02*
X29729417Y-101625407D01*
X29729417Y-101625407D02*
X29872274Y-101625407D01*
X29872274Y-101625407D02*
X29967512Y-101673026D01*
X29967512Y-101673026D02*
X30015131Y-101720645D01*
X30015131Y-101720645D02*
X30062750Y-101815883D01*
X30062750Y-101815883D02*
X30062750Y-102101597D01*
X30062750Y-102101597D02*
X30015131Y-102196835D01*
X30015131Y-102196835D02*
X29967512Y-102244455D01*
X29967512Y-102244455D02*
X29872274Y-102292074D01*
X29872274Y-102292074D02*
X29729417Y-102292074D01*
X30919893Y-101625407D02*
X30919893Y-102292074D01*
X30491322Y-101625407D02*
X30491322Y-102149216D01*
X30491322Y-102149216D02*
X30538941Y-102244455D01*
X30538941Y-102244455D02*
X30634179Y-102292074D01*
X30634179Y-102292074D02*
X30777036Y-102292074D01*
X30777036Y-102292074D02*
X30872274Y-102244455D01*
X30872274Y-102244455D02*
X30919893Y-102196835D01*
X31396084Y-101625407D02*
X31396084Y-102292074D01*
X31396084Y-101720645D02*
X31443703Y-101673026D01*
X31443703Y-101673026D02*
X31538941Y-101625407D01*
X31538941Y-101625407D02*
X31681798Y-101625407D01*
X31681798Y-101625407D02*
X31777036Y-101673026D01*
X31777036Y-101673026D02*
X31824655Y-101768264D01*
X31824655Y-101768264D02*
X31824655Y-102292074D01*
X32729417Y-102292074D02*
X32729417Y-101292074D01*
X32729417Y-102244455D02*
X32634179Y-102292074D01*
X32634179Y-102292074D02*
X32443703Y-102292074D01*
X32443703Y-102292074D02*
X32348465Y-102244455D01*
X32348465Y-102244455D02*
X32300846Y-102196835D01*
X32300846Y-102196835D02*
X32253227Y-102101597D01*
X32253227Y-102101597D02*
X32253227Y-101815883D01*
X32253227Y-101815883D02*
X32300846Y-101720645D01*
X32300846Y-101720645D02*
X32348465Y-101673026D01*
X32348465Y-101673026D02*
X32443703Y-101625407D01*
X32443703Y-101625407D02*
X32634179Y-101625407D01*
X32634179Y-101625407D02*
X32729417Y-101673026D01*
X33586560Y-102244455D02*
X33491322Y-102292074D01*
X33491322Y-102292074D02*
X33300846Y-102292074D01*
X33300846Y-102292074D02*
X33205608Y-102244455D01*
X33205608Y-102244455D02*
X33157989Y-102149216D01*
X33157989Y-102149216D02*
X33157989Y-101768264D01*
X33157989Y-101768264D02*
X33205608Y-101673026D01*
X33205608Y-101673026D02*
X33300846Y-101625407D01*
X33300846Y-101625407D02*
X33491322Y-101625407D01*
X33491322Y-101625407D02*
X33586560Y-101673026D01*
X33586560Y-101673026D02*
X33634179Y-101768264D01*
X33634179Y-101768264D02*
X33634179Y-101863502D01*
X33634179Y-101863502D02*
X33157989Y-101958740D01*
X34062751Y-102292074D02*
X34062751Y-101625407D01*
X34062751Y-101815883D02*
X34110370Y-101720645D01*
X34110370Y-101720645D02*
X34157989Y-101673026D01*
X34157989Y-101673026D02*
X34253227Y-101625407D01*
X34253227Y-101625407D02*
X34348465Y-101625407D01*
X35205608Y-102292074D02*
X34634180Y-102292074D01*
X34919894Y-102292074D02*
X34919894Y-101292074D01*
X34919894Y-101292074D02*
X34824656Y-101434931D01*
X34824656Y-101434931D02*
X34729418Y-101530169D01*
X34729418Y-101530169D02*
X34634180Y-101577788D01*
X137999998Y-42505038D02*
X137904760Y-42457419D01*
X137904760Y-42457419D02*
X137761903Y-42457419D01*
X137761903Y-42457419D02*
X137619046Y-42505038D01*
X137619046Y-42505038D02*
X137523808Y-42600276D01*
X137523808Y-42600276D02*
X137476189Y-42695514D01*
X137476189Y-42695514D02*
X137428570Y-42885990D01*
X137428570Y-42885990D02*
X137428570Y-43028847D01*
X137428570Y-43028847D02*
X137476189Y-43219323D01*
X137476189Y-43219323D02*
X137523808Y-43314561D01*
X137523808Y-43314561D02*
X137619046Y-43409800D01*
X137619046Y-43409800D02*
X137761903Y-43457419D01*
X137761903Y-43457419D02*
X137857141Y-43457419D01*
X137857141Y-43457419D02*
X137999998Y-43409800D01*
X137999998Y-43409800D02*
X138047617Y-43362180D01*
X138047617Y-43362180D02*
X138047617Y-43028847D01*
X138047617Y-43028847D02*
X137857141Y-43028847D01*
X138476189Y-43457419D02*
X138476189Y-42790752D01*
X138476189Y-42981228D02*
X138523808Y-42885990D01*
X138523808Y-42885990D02*
X138571427Y-42838371D01*
X138571427Y-42838371D02*
X138666665Y-42790752D01*
X138666665Y-42790752D02*
X138761903Y-42790752D01*
X139523808Y-43457419D02*
X139523808Y-42933609D01*
X139523808Y-42933609D02*
X139476189Y-42838371D01*
X139476189Y-42838371D02*
X139380951Y-42790752D01*
X139380951Y-42790752D02*
X139190475Y-42790752D01*
X139190475Y-42790752D02*
X139095237Y-42838371D01*
X139523808Y-43409800D02*
X139428570Y-43457419D01*
X139428570Y-43457419D02*
X139190475Y-43457419D01*
X139190475Y-43457419D02*
X139095237Y-43409800D01*
X139095237Y-43409800D02*
X139047618Y-43314561D01*
X139047618Y-43314561D02*
X139047618Y-43219323D01*
X139047618Y-43219323D02*
X139095237Y-43124085D01*
X139095237Y-43124085D02*
X139190475Y-43076466D01*
X139190475Y-43076466D02*
X139428570Y-43076466D01*
X139428570Y-43076466D02*
X139523808Y-43028847D01*
X139904761Y-42790752D02*
X140142856Y-43457419D01*
X140380951Y-42790752D02*
X140142856Y-43457419D01*
X140142856Y-43457419D02*
X140047618Y-43695514D01*
X140047618Y-43695514D02*
X139999999Y-43743133D01*
X139999999Y-43743133D02*
X139904761Y-43790752D01*
X140714285Y-43409800D02*
X140857142Y-43457419D01*
X140857142Y-43457419D02*
X141095237Y-43457419D01*
X141095237Y-43457419D02*
X141190475Y-43409800D01*
X141190475Y-43409800D02*
X141238094Y-43362180D01*
X141238094Y-43362180D02*
X141285713Y-43266942D01*
X141285713Y-43266942D02*
X141285713Y-43171704D01*
X141285713Y-43171704D02*
X141238094Y-43076466D01*
X141238094Y-43076466D02*
X141190475Y-43028847D01*
X141190475Y-43028847D02*
X141095237Y-42981228D01*
X141095237Y-42981228D02*
X140904761Y-42933609D01*
X140904761Y-42933609D02*
X140809523Y-42885990D01*
X140809523Y-42885990D02*
X140761904Y-42838371D01*
X140761904Y-42838371D02*
X140714285Y-42743133D01*
X140714285Y-42743133D02*
X140714285Y-42647895D01*
X140714285Y-42647895D02*
X140761904Y-42552657D01*
X140761904Y-42552657D02*
X140809523Y-42505038D01*
X140809523Y-42505038D02*
X140904761Y-42457419D01*
X140904761Y-42457419D02*
X141142856Y-42457419D01*
X141142856Y-42457419D02*
X141285713Y-42505038D01*
X142142856Y-43409800D02*
X142047618Y-43457419D01*
X142047618Y-43457419D02*
X141857142Y-43457419D01*
X141857142Y-43457419D02*
X141761904Y-43409800D01*
X141761904Y-43409800D02*
X141714285Y-43362180D01*
X141714285Y-43362180D02*
X141666666Y-43266942D01*
X141666666Y-43266942D02*
X141666666Y-42981228D01*
X141666666Y-42981228D02*
X141714285Y-42885990D01*
X141714285Y-42885990D02*
X141761904Y-42838371D01*
X141761904Y-42838371D02*
X141857142Y-42790752D01*
X141857142Y-42790752D02*
X142047618Y-42790752D01*
X142047618Y-42790752D02*
X142142856Y-42838371D01*
X142999999Y-43457419D02*
X142999999Y-42933609D01*
X142999999Y-42933609D02*
X142952380Y-42838371D01*
X142952380Y-42838371D02*
X142857142Y-42790752D01*
X142857142Y-42790752D02*
X142666666Y-42790752D01*
X142666666Y-42790752D02*
X142571428Y-42838371D01*
X142999999Y-43409800D02*
X142904761Y-43457419D01*
X142904761Y-43457419D02*
X142666666Y-43457419D01*
X142666666Y-43457419D02*
X142571428Y-43409800D01*
X142571428Y-43409800D02*
X142523809Y-43314561D01*
X142523809Y-43314561D02*
X142523809Y-43219323D01*
X142523809Y-43219323D02*
X142571428Y-43124085D01*
X142571428Y-43124085D02*
X142666666Y-43076466D01*
X142666666Y-43076466D02*
X142904761Y-43076466D01*
X142904761Y-43076466D02*
X142999999Y-43028847D01*
X143619047Y-43457419D02*
X143523809Y-43409800D01*
X143523809Y-43409800D02*
X143476190Y-43314561D01*
X143476190Y-43314561D02*
X143476190Y-42457419D01*
X144380952Y-43409800D02*
X144285714Y-43457419D01*
X144285714Y-43457419D02*
X144095238Y-43457419D01*
X144095238Y-43457419D02*
X144000000Y-43409800D01*
X144000000Y-43409800D02*
X143952381Y-43314561D01*
X143952381Y-43314561D02*
X143952381Y-42933609D01*
X143952381Y-42933609D02*
X144000000Y-42838371D01*
X144000000Y-42838371D02*
X144095238Y-42790752D01*
X144095238Y-42790752D02*
X144285714Y-42790752D01*
X144285714Y-42790752D02*
X144380952Y-42838371D01*
X144380952Y-42838371D02*
X144428571Y-42933609D01*
X144428571Y-42933609D02*
X144428571Y-43028847D01*
X144428571Y-43028847D02*
X143952381Y-43124085D01*
X144619048Y-43552657D02*
X145380952Y-43552657D01*
X145571429Y-43409800D02*
X145714286Y-43457419D01*
X145714286Y-43457419D02*
X145952381Y-43457419D01*
X145952381Y-43457419D02*
X146047619Y-43409800D01*
X146047619Y-43409800D02*
X146095238Y-43362180D01*
X146095238Y-43362180D02*
X146142857Y-43266942D01*
X146142857Y-43266942D02*
X146142857Y-43171704D01*
X146142857Y-43171704D02*
X146095238Y-43076466D01*
X146095238Y-43076466D02*
X146047619Y-43028847D01*
X146047619Y-43028847D02*
X145952381Y-42981228D01*
X145952381Y-42981228D02*
X145761905Y-42933609D01*
X145761905Y-42933609D02*
X145666667Y-42885990D01*
X145666667Y-42885990D02*
X145619048Y-42838371D01*
X145619048Y-42838371D02*
X145571429Y-42743133D01*
X145571429Y-42743133D02*
X145571429Y-42647895D01*
X145571429Y-42647895D02*
X145619048Y-42552657D01*
X145619048Y-42552657D02*
X145666667Y-42505038D01*
X145666667Y-42505038D02*
X145761905Y-42457419D01*
X145761905Y-42457419D02*
X146000000Y-42457419D01*
X146000000Y-42457419D02*
X146142857Y-42505038D01*
X147000000Y-42790752D02*
X147000000Y-43457419D01*
X146571429Y-42790752D02*
X146571429Y-43314561D01*
X146571429Y-43314561D02*
X146619048Y-43409800D01*
X146619048Y-43409800D02*
X146714286Y-43457419D01*
X146714286Y-43457419D02*
X146857143Y-43457419D01*
X146857143Y-43457419D02*
X146952381Y-43409800D01*
X146952381Y-43409800D02*
X147000000Y-43362180D01*
X147476191Y-42790752D02*
X147476191Y-43457419D01*
X147476191Y-42885990D02*
X147523810Y-42838371D01*
X147523810Y-42838371D02*
X147619048Y-42790752D01*
X147619048Y-42790752D02*
X147761905Y-42790752D01*
X147761905Y-42790752D02*
X147857143Y-42838371D01*
X147857143Y-42838371D02*
X147904762Y-42933609D01*
X147904762Y-42933609D02*
X147904762Y-43457419D01*
X148238096Y-42790752D02*
X148619048Y-42790752D01*
X148380953Y-43457419D02*
X148380953Y-42600276D01*
X148380953Y-42600276D02*
X148428572Y-42505038D01*
X148428572Y-42505038D02*
X148523810Y-42457419D01*
X148523810Y-42457419D02*
X148619048Y-42457419D01*
X149095239Y-43457419D02*
X149000001Y-43409800D01*
X149000001Y-43409800D02*
X148952382Y-43362180D01*
X148952382Y-43362180D02*
X148904763Y-43266942D01*
X148904763Y-43266942D02*
X148904763Y-42981228D01*
X148904763Y-42981228D02*
X148952382Y-42885990D01*
X148952382Y-42885990D02*
X149000001Y-42838371D01*
X149000001Y-42838371D02*
X149095239Y-42790752D01*
X149095239Y-42790752D02*
X149238096Y-42790752D01*
X149238096Y-42790752D02*
X149333334Y-42838371D01*
X149333334Y-42838371D02*
X149380953Y-42885990D01*
X149380953Y-42885990D02*
X149428572Y-42981228D01*
X149428572Y-42981228D02*
X149428572Y-43266942D01*
X149428572Y-43266942D02*
X149380953Y-43362180D01*
X149380953Y-43362180D02*
X149333334Y-43409800D01*
X149333334Y-43409800D02*
X149238096Y-43457419D01*
X149238096Y-43457419D02*
X149095239Y-43457419D01*
X150285715Y-42790752D02*
X150285715Y-43457419D01*
X149857144Y-42790752D02*
X149857144Y-43314561D01*
X149857144Y-43314561D02*
X149904763Y-43409800D01*
X149904763Y-43409800D02*
X150000001Y-43457419D01*
X150000001Y-43457419D02*
X150142858Y-43457419D01*
X150142858Y-43457419D02*
X150238096Y-43409800D01*
X150238096Y-43409800D02*
X150285715Y-43362180D01*
X150761906Y-42790752D02*
X150761906Y-43457419D01*
X150761906Y-42885990D02*
X150809525Y-42838371D01*
X150809525Y-42838371D02*
X150904763Y-42790752D01*
X150904763Y-42790752D02*
X151047620Y-42790752D01*
X151047620Y-42790752D02*
X151142858Y-42838371D01*
X151142858Y-42838371D02*
X151190477Y-42933609D01*
X151190477Y-42933609D02*
X151190477Y-43457419D01*
X152095239Y-43457419D02*
X152095239Y-42457419D01*
X152095239Y-43409800D02*
X152000001Y-43457419D01*
X152000001Y-43457419D02*
X151809525Y-43457419D01*
X151809525Y-43457419D02*
X151714287Y-43409800D01*
X151714287Y-43409800D02*
X151666668Y-43362180D01*
X151666668Y-43362180D02*
X151619049Y-43266942D01*
X151619049Y-43266942D02*
X151619049Y-42981228D01*
X151619049Y-42981228D02*
X151666668Y-42885990D01*
X151666668Y-42885990D02*
X151714287Y-42838371D01*
X151714287Y-42838371D02*
X151809525Y-42790752D01*
X151809525Y-42790752D02*
X152000001Y-42790752D01*
X152000001Y-42790752D02*
X152095239Y-42838371D01*
X152952382Y-43409800D02*
X152857144Y-43457419D01*
X152857144Y-43457419D02*
X152666668Y-43457419D01*
X152666668Y-43457419D02*
X152571430Y-43409800D01*
X152571430Y-43409800D02*
X152523811Y-43314561D01*
X152523811Y-43314561D02*
X152523811Y-42933609D01*
X152523811Y-42933609D02*
X152571430Y-42838371D01*
X152571430Y-42838371D02*
X152666668Y-42790752D01*
X152666668Y-42790752D02*
X152857144Y-42790752D01*
X152857144Y-42790752D02*
X152952382Y-42838371D01*
X152952382Y-42838371D02*
X153000001Y-42933609D01*
X153000001Y-42933609D02*
X153000001Y-43028847D01*
X153000001Y-43028847D02*
X152523811Y-43124085D01*
X153428573Y-43457419D02*
X153428573Y-42790752D01*
X153428573Y-42981228D02*
X153476192Y-42885990D01*
X153476192Y-42885990D02*
X153523811Y-42838371D01*
X153523811Y-42838371D02*
X153619049Y-42790752D01*
X153619049Y-42790752D02*
X153714287Y-42790752D01*
X154571430Y-43457419D02*
X154000002Y-43457419D01*
X154285716Y-43457419D02*
X154285716Y-42457419D01*
X154285716Y-42457419D02*
X154190478Y-42600276D01*
X154190478Y-42600276D02*
X154095240Y-42695514D01*
X154095240Y-42695514D02*
X154000002Y-42743133D01*
D11*
X141752649Y-143646249D02*
X141752649Y-144456194D01*
X141752649Y-144456194D02*
X141800292Y-144551482D01*
X141800292Y-144551482D02*
X141847936Y-144599126D01*
X141847936Y-144599126D02*
X141943224Y-144646769D01*
X141943224Y-144646769D02*
X142133799Y-144646769D01*
X142133799Y-144646769D02*
X142229087Y-144599126D01*
X142229087Y-144599126D02*
X142276730Y-144551482D01*
X142276730Y-144551482D02*
X142324374Y-144456194D01*
X142324374Y-144456194D02*
X142324374Y-143646249D01*
X143324894Y-144646769D02*
X142753169Y-144646769D01*
X143039032Y-144646769D02*
X143039032Y-143646249D01*
X143039032Y-143646249D02*
X142943744Y-143789181D01*
X142943744Y-143789181D02*
X142848456Y-143884468D01*
X142848456Y-143884468D02*
X142753169Y-143932112D01*
X77811855Y-72432987D02*
X77859474Y-72290130D01*
X77859474Y-72290130D02*
X77859474Y-72052035D01*
X77859474Y-72052035D02*
X77811855Y-71956797D01*
X77811855Y-71956797D02*
X77764235Y-71909178D01*
X77764235Y-71909178D02*
X77668997Y-71861559D01*
X77668997Y-71861559D02*
X77573759Y-71861559D01*
X77573759Y-71861559D02*
X77478521Y-71909178D01*
X77478521Y-71909178D02*
X77430902Y-71956797D01*
X77430902Y-71956797D02*
X77383283Y-72052035D01*
X77383283Y-72052035D02*
X77335664Y-72242511D01*
X77335664Y-72242511D02*
X77288045Y-72337749D01*
X77288045Y-72337749D02*
X77240426Y-72385368D01*
X77240426Y-72385368D02*
X77145188Y-72432987D01*
X77145188Y-72432987D02*
X77049950Y-72432987D01*
X77049950Y-72432987D02*
X76954712Y-72385368D01*
X76954712Y-72385368D02*
X76907093Y-72337749D01*
X76907093Y-72337749D02*
X76859474Y-72242511D01*
X76859474Y-72242511D02*
X76859474Y-72004416D01*
X76859474Y-72004416D02*
X76907093Y-71861559D01*
X76859474Y-71528225D02*
X77859474Y-71290130D01*
X77859474Y-71290130D02*
X77145188Y-71099654D01*
X77145188Y-71099654D02*
X77859474Y-70909178D01*
X77859474Y-70909178D02*
X76859474Y-70671083D01*
X77859474Y-69766321D02*
X77859474Y-70337749D01*
X77859474Y-70052035D02*
X76859474Y-70052035D01*
X76859474Y-70052035D02*
X77002331Y-70147273D01*
X77002331Y-70147273D02*
X77097569Y-70242511D01*
X77097569Y-70242511D02*
X77145188Y-70337749D01*
X118029474Y-80622988D02*
X118743759Y-80622988D01*
X118743759Y-80622988D02*
X118886616Y-80670607D01*
X118886616Y-80670607D02*
X118981855Y-80765845D01*
X118981855Y-80765845D02*
X119029474Y-80908702D01*
X119029474Y-80908702D02*
X119029474Y-81003940D01*
X118029474Y-79670607D02*
X118029474Y-80146797D01*
X118029474Y-80146797D02*
X118505664Y-80194416D01*
X118505664Y-80194416D02*
X118458045Y-80146797D01*
X118458045Y-80146797D02*
X118410426Y-80051559D01*
X118410426Y-80051559D02*
X118410426Y-79813464D01*
X118410426Y-79813464D02*
X118458045Y-79718226D01*
X118458045Y-79718226D02*
X118505664Y-79670607D01*
X118505664Y-79670607D02*
X118600902Y-79622988D01*
X118600902Y-79622988D02*
X118838997Y-79622988D01*
X118838997Y-79622988D02*
X118934235Y-79670607D01*
X118934235Y-79670607D02*
X118981855Y-79718226D01*
X118981855Y-79718226D02*
X119029474Y-79813464D01*
X119029474Y-79813464D02*
X119029474Y-80051559D01*
X119029474Y-80051559D02*
X118981855Y-80146797D01*
X118981855Y-80146797D02*
X118934235Y-80194416D01*
X118652750Y-112144474D02*
X118652750Y-111144474D01*
X118652750Y-111620664D02*
X119224178Y-111620664D01*
X119224178Y-112144474D02*
X119224178Y-111144474D01*
X120128940Y-111477807D02*
X120128940Y-112144474D01*
X119890845Y-111096855D02*
X119652750Y-111811140D01*
X119652750Y-111811140D02*
X120271797Y-111811140D01*
D10*
X113363743Y-144189574D02*
X113363743Y-143189574D01*
X113363743Y-143189574D02*
X113697076Y-143903859D01*
X113697076Y-143903859D02*
X114030409Y-143189574D01*
X114030409Y-143189574D02*
X114030409Y-144189574D01*
X115030409Y-144189574D02*
X114458981Y-144189574D01*
X114744695Y-144189574D02*
X114744695Y-143189574D01*
X114744695Y-143189574D02*
X114649457Y-143332431D01*
X114649457Y-143332431D02*
X114554219Y-143427669D01*
X114554219Y-143427669D02*
X114458981Y-143475288D01*
D11*
X71857988Y-73594474D02*
X71524655Y-73118283D01*
X71286560Y-73594474D02*
X71286560Y-72594474D01*
X71286560Y-72594474D02*
X71667512Y-72594474D01*
X71667512Y-72594474D02*
X71762750Y-72642093D01*
X71762750Y-72642093D02*
X71810369Y-72689712D01*
X71810369Y-72689712D02*
X71857988Y-72784950D01*
X71857988Y-72784950D02*
X71857988Y-72927807D01*
X71857988Y-72927807D02*
X71810369Y-73023045D01*
X71810369Y-73023045D02*
X71762750Y-73070664D01*
X71762750Y-73070664D02*
X71667512Y-73118283D01*
X71667512Y-73118283D02*
X71286560Y-73118283D01*
X72191322Y-72594474D02*
X72857988Y-72594474D01*
X72857988Y-72594474D02*
X72429417Y-73594474D01*
X74407988Y-67244474D02*
X74074655Y-66768283D01*
X73836560Y-67244474D02*
X73836560Y-66244474D01*
X73836560Y-66244474D02*
X74217512Y-66244474D01*
X74217512Y-66244474D02*
X74312750Y-66292093D01*
X74312750Y-66292093D02*
X74360369Y-66339712D01*
X74360369Y-66339712D02*
X74407988Y-66434950D01*
X74407988Y-66434950D02*
X74407988Y-66577807D01*
X74407988Y-66577807D02*
X74360369Y-66673045D01*
X74360369Y-66673045D02*
X74312750Y-66720664D01*
X74312750Y-66720664D02*
X74217512Y-66768283D01*
X74217512Y-66768283D02*
X73836560Y-66768283D01*
X74884179Y-67244474D02*
X75074655Y-67244474D01*
X75074655Y-67244474D02*
X75169893Y-67196855D01*
X75169893Y-67196855D02*
X75217512Y-67149235D01*
X75217512Y-67149235D02*
X75312750Y-67006378D01*
X75312750Y-67006378D02*
X75360369Y-66815902D01*
X75360369Y-66815902D02*
X75360369Y-66434950D01*
X75360369Y-66434950D02*
X75312750Y-66339712D01*
X75312750Y-66339712D02*
X75265131Y-66292093D01*
X75265131Y-66292093D02*
X75169893Y-66244474D01*
X75169893Y-66244474D02*
X74979417Y-66244474D01*
X74979417Y-66244474D02*
X74884179Y-66292093D01*
X74884179Y-66292093D02*
X74836560Y-66339712D01*
X74836560Y-66339712D02*
X74788941Y-66434950D01*
X74788941Y-66434950D02*
X74788941Y-66673045D01*
X74788941Y-66673045D02*
X74836560Y-66768283D01*
X74836560Y-66768283D02*
X74884179Y-66815902D01*
X74884179Y-66815902D02*
X74979417Y-66863521D01*
X74979417Y-66863521D02*
X75169893Y-66863521D01*
X75169893Y-66863521D02*
X75265131Y-66815902D01*
X75265131Y-66815902D02*
X75312750Y-66768283D01*
X75312750Y-66768283D02*
X75360369Y-66673045D01*
X102062750Y-71244474D02*
X102062750Y-72053997D01*
X102062750Y-72053997D02*
X102110369Y-72149235D01*
X102110369Y-72149235D02*
X102157988Y-72196855D01*
X102157988Y-72196855D02*
X102253226Y-72244474D01*
X102253226Y-72244474D02*
X102443702Y-72244474D01*
X102443702Y-72244474D02*
X102538940Y-72196855D01*
X102538940Y-72196855D02*
X102586559Y-72149235D01*
X102586559Y-72149235D02*
X102634178Y-72053997D01*
X102634178Y-72053997D02*
X102634178Y-71244474D01*
X103062750Y-71339712D02*
X103110369Y-71292093D01*
X103110369Y-71292093D02*
X103205607Y-71244474D01*
X103205607Y-71244474D02*
X103443702Y-71244474D01*
X103443702Y-71244474D02*
X103538940Y-71292093D01*
X103538940Y-71292093D02*
X103586559Y-71339712D01*
X103586559Y-71339712D02*
X103634178Y-71434950D01*
X103634178Y-71434950D02*
X103634178Y-71530188D01*
X103634178Y-71530188D02*
X103586559Y-71673045D01*
X103586559Y-71673045D02*
X103015131Y-72244474D01*
X103015131Y-72244474D02*
X103634178Y-72244474D01*
X90149474Y-72722988D02*
X90863759Y-72722988D01*
X90863759Y-72722988D02*
X91006616Y-72770607D01*
X91006616Y-72770607D02*
X91101855Y-72865845D01*
X91101855Y-72865845D02*
X91149474Y-73008702D01*
X91149474Y-73008702D02*
X91149474Y-73103940D01*
X91149474Y-72199178D02*
X91149474Y-72008702D01*
X91149474Y-72008702D02*
X91101855Y-71913464D01*
X91101855Y-71913464D02*
X91054235Y-71865845D01*
X91054235Y-71865845D02*
X90911378Y-71770607D01*
X90911378Y-71770607D02*
X90720902Y-71722988D01*
X90720902Y-71722988D02*
X90339950Y-71722988D01*
X90339950Y-71722988D02*
X90244712Y-71770607D01*
X90244712Y-71770607D02*
X90197093Y-71818226D01*
X90197093Y-71818226D02*
X90149474Y-71913464D01*
X90149474Y-71913464D02*
X90149474Y-72103940D01*
X90149474Y-72103940D02*
X90197093Y-72199178D01*
X90197093Y-72199178D02*
X90244712Y-72246797D01*
X90244712Y-72246797D02*
X90339950Y-72294416D01*
X90339950Y-72294416D02*
X90578045Y-72294416D01*
X90578045Y-72294416D02*
X90673283Y-72246797D01*
X90673283Y-72246797D02*
X90720902Y-72199178D01*
X90720902Y-72199178D02*
X90768521Y-72103940D01*
X90768521Y-72103940D02*
X90768521Y-71913464D01*
X90768521Y-71913464D02*
X90720902Y-71818226D01*
X90720902Y-71818226D02*
X90673283Y-71770607D01*
X90673283Y-71770607D02*
X90578045Y-71722988D01*
X60662750Y-112154474D02*
X60662750Y-111154474D01*
X60662750Y-111630664D02*
X61234178Y-111630664D01*
X61234178Y-112154474D02*
X61234178Y-111154474D01*
X61615131Y-111154474D02*
X62234178Y-111154474D01*
X62234178Y-111154474D02*
X61900845Y-111535426D01*
X61900845Y-111535426D02*
X62043702Y-111535426D01*
X62043702Y-111535426D02*
X62138940Y-111583045D01*
X62138940Y-111583045D02*
X62186559Y-111630664D01*
X62186559Y-111630664D02*
X62234178Y-111725902D01*
X62234178Y-111725902D02*
X62234178Y-111963997D01*
X62234178Y-111963997D02*
X62186559Y-112059235D01*
X62186559Y-112059235D02*
X62138940Y-112106855D01*
X62138940Y-112106855D02*
X62043702Y-112154474D01*
X62043702Y-112154474D02*
X61757988Y-112154474D01*
X61757988Y-112154474D02*
X61662750Y-112106855D01*
X61662750Y-112106855D02*
X61615131Y-112059235D01*
X71701321Y-73734474D02*
X71701321Y-74448759D01*
X71701321Y-74448759D02*
X71653702Y-74591616D01*
X71653702Y-74591616D02*
X71558464Y-74686855D01*
X71558464Y-74686855D02*
X71415607Y-74734474D01*
X71415607Y-74734474D02*
X71320369Y-74734474D01*
X72606083Y-73734474D02*
X72415607Y-73734474D01*
X72415607Y-73734474D02*
X72320369Y-73782093D01*
X72320369Y-73782093D02*
X72272750Y-73829712D01*
X72272750Y-73829712D02*
X72177512Y-73972569D01*
X72177512Y-73972569D02*
X72129893Y-74163045D01*
X72129893Y-74163045D02*
X72129893Y-74543997D01*
X72129893Y-74543997D02*
X72177512Y-74639235D01*
X72177512Y-74639235D02*
X72225131Y-74686855D01*
X72225131Y-74686855D02*
X72320369Y-74734474D01*
X72320369Y-74734474D02*
X72510845Y-74734474D01*
X72510845Y-74734474D02*
X72606083Y-74686855D01*
X72606083Y-74686855D02*
X72653702Y-74639235D01*
X72653702Y-74639235D02*
X72701321Y-74543997D01*
X72701321Y-74543997D02*
X72701321Y-74305902D01*
X72701321Y-74305902D02*
X72653702Y-74210664D01*
X72653702Y-74210664D02*
X72606083Y-74163045D01*
X72606083Y-74163045D02*
X72510845Y-74115426D01*
X72510845Y-74115426D02*
X72320369Y-74115426D01*
X72320369Y-74115426D02*
X72225131Y-74163045D01*
X72225131Y-74163045D02*
X72177512Y-74210664D01*
X72177512Y-74210664D02*
X72129893Y-74305902D01*
X90907988Y-66744474D02*
X90574655Y-66268283D01*
X90336560Y-66744474D02*
X90336560Y-65744474D01*
X90336560Y-65744474D02*
X90717512Y-65744474D01*
X90717512Y-65744474D02*
X90812750Y-65792093D01*
X90812750Y-65792093D02*
X90860369Y-65839712D01*
X90860369Y-65839712D02*
X90907988Y-65934950D01*
X90907988Y-65934950D02*
X90907988Y-66077807D01*
X90907988Y-66077807D02*
X90860369Y-66173045D01*
X90860369Y-66173045D02*
X90812750Y-66220664D01*
X90812750Y-66220664D02*
X90717512Y-66268283D01*
X90717512Y-66268283D02*
X90336560Y-66268283D01*
X91765131Y-65744474D02*
X91574655Y-65744474D01*
X91574655Y-65744474D02*
X91479417Y-65792093D01*
X91479417Y-65792093D02*
X91431798Y-65839712D01*
X91431798Y-65839712D02*
X91336560Y-65982569D01*
X91336560Y-65982569D02*
X91288941Y-66173045D01*
X91288941Y-66173045D02*
X91288941Y-66553997D01*
X91288941Y-66553997D02*
X91336560Y-66649235D01*
X91336560Y-66649235D02*
X91384179Y-66696855D01*
X91384179Y-66696855D02*
X91479417Y-66744474D01*
X91479417Y-66744474D02*
X91669893Y-66744474D01*
X91669893Y-66744474D02*
X91765131Y-66696855D01*
X91765131Y-66696855D02*
X91812750Y-66649235D01*
X91812750Y-66649235D02*
X91860369Y-66553997D01*
X91860369Y-66553997D02*
X91860369Y-66315902D01*
X91860369Y-66315902D02*
X91812750Y-66220664D01*
X91812750Y-66220664D02*
X91765131Y-66173045D01*
X91765131Y-66173045D02*
X91669893Y-66125426D01*
X91669893Y-66125426D02*
X91479417Y-66125426D01*
X91479417Y-66125426D02*
X91384179Y-66173045D01*
X91384179Y-66173045D02*
X91336560Y-66220664D01*
X91336560Y-66220664D02*
X91288941Y-66315902D01*
X60662750Y-63144474D02*
X60662750Y-62144474D01*
X60662750Y-62620664D02*
X61234178Y-62620664D01*
X61234178Y-63144474D02*
X61234178Y-62144474D01*
X62234178Y-63144474D02*
X61662750Y-63144474D01*
X61948464Y-63144474D02*
X61948464Y-62144474D01*
X61948464Y-62144474D02*
X61853226Y-62287331D01*
X61853226Y-62287331D02*
X61757988Y-62382569D01*
X61757988Y-62382569D02*
X61662750Y-62430188D01*
X98781797Y-74244474D02*
X98448464Y-73768283D01*
X98210369Y-74244474D02*
X98210369Y-73244474D01*
X98210369Y-73244474D02*
X98591321Y-73244474D01*
X98591321Y-73244474D02*
X98686559Y-73292093D01*
X98686559Y-73292093D02*
X98734178Y-73339712D01*
X98734178Y-73339712D02*
X98781797Y-73434950D01*
X98781797Y-73434950D02*
X98781797Y-73577807D01*
X98781797Y-73577807D02*
X98734178Y-73673045D01*
X98734178Y-73673045D02*
X98686559Y-73720664D01*
X98686559Y-73720664D02*
X98591321Y-73768283D01*
X98591321Y-73768283D02*
X98210369Y-73768283D01*
X99734178Y-74244474D02*
X99162750Y-74244474D01*
X99448464Y-74244474D02*
X99448464Y-73244474D01*
X99448464Y-73244474D02*
X99353226Y-73387331D01*
X99353226Y-73387331D02*
X99257988Y-73482569D01*
X99257988Y-73482569D02*
X99162750Y-73530188D01*
X100686559Y-74244474D02*
X100115131Y-74244474D01*
X100400845Y-74244474D02*
X100400845Y-73244474D01*
X100400845Y-73244474D02*
X100305607Y-73387331D01*
X100305607Y-73387331D02*
X100210369Y-73482569D01*
X100210369Y-73482569D02*
X100115131Y-73530188D01*
X89931797Y-70244474D02*
X89598464Y-69768283D01*
X89360369Y-70244474D02*
X89360369Y-69244474D01*
X89360369Y-69244474D02*
X89741321Y-69244474D01*
X89741321Y-69244474D02*
X89836559Y-69292093D01*
X89836559Y-69292093D02*
X89884178Y-69339712D01*
X89884178Y-69339712D02*
X89931797Y-69434950D01*
X89931797Y-69434950D02*
X89931797Y-69577807D01*
X89931797Y-69577807D02*
X89884178Y-69673045D01*
X89884178Y-69673045D02*
X89836559Y-69720664D01*
X89836559Y-69720664D02*
X89741321Y-69768283D01*
X89741321Y-69768283D02*
X89360369Y-69768283D01*
X90312750Y-69339712D02*
X90360369Y-69292093D01*
X90360369Y-69292093D02*
X90455607Y-69244474D01*
X90455607Y-69244474D02*
X90693702Y-69244474D01*
X90693702Y-69244474D02*
X90788940Y-69292093D01*
X90788940Y-69292093D02*
X90836559Y-69339712D01*
X90836559Y-69339712D02*
X90884178Y-69434950D01*
X90884178Y-69434950D02*
X90884178Y-69530188D01*
X90884178Y-69530188D02*
X90836559Y-69673045D01*
X90836559Y-69673045D02*
X90265131Y-70244474D01*
X90265131Y-70244474D02*
X90884178Y-70244474D01*
X91360369Y-70244474D02*
X91550845Y-70244474D01*
X91550845Y-70244474D02*
X91646083Y-70196855D01*
X91646083Y-70196855D02*
X91693702Y-70149235D01*
X91693702Y-70149235D02*
X91788940Y-70006378D01*
X91788940Y-70006378D02*
X91836559Y-69815902D01*
X91836559Y-69815902D02*
X91836559Y-69434950D01*
X91836559Y-69434950D02*
X91788940Y-69339712D01*
X91788940Y-69339712D02*
X91741321Y-69292093D01*
X91741321Y-69292093D02*
X91646083Y-69244474D01*
X91646083Y-69244474D02*
X91455607Y-69244474D01*
X91455607Y-69244474D02*
X91360369Y-69292093D01*
X91360369Y-69292093D02*
X91312750Y-69339712D01*
X91312750Y-69339712D02*
X91265131Y-69434950D01*
X91265131Y-69434950D02*
X91265131Y-69673045D01*
X91265131Y-69673045D02*
X91312750Y-69768283D01*
X91312750Y-69768283D02*
X91360369Y-69815902D01*
X91360369Y-69815902D02*
X91455607Y-69863521D01*
X91455607Y-69863521D02*
X91646083Y-69863521D01*
X91646083Y-69863521D02*
X91741321Y-69815902D01*
X91741321Y-69815902D02*
X91788940Y-69768283D01*
X91788940Y-69768283D02*
X91836559Y-69673045D01*
X65123474Y-75640512D02*
X64647283Y-75973845D01*
X65123474Y-76211940D02*
X64123474Y-76211940D01*
X64123474Y-76211940D02*
X64123474Y-75830988D01*
X64123474Y-75830988D02*
X64171093Y-75735750D01*
X64171093Y-75735750D02*
X64218712Y-75688131D01*
X64218712Y-75688131D02*
X64313950Y-75640512D01*
X64313950Y-75640512D02*
X64456807Y-75640512D01*
X64456807Y-75640512D02*
X64552045Y-75688131D01*
X64552045Y-75688131D02*
X64599664Y-75735750D01*
X64599664Y-75735750D02*
X64647283Y-75830988D01*
X64647283Y-75830988D02*
X64647283Y-76211940D01*
X64218712Y-75259559D02*
X64171093Y-75211940D01*
X64171093Y-75211940D02*
X64123474Y-75116702D01*
X64123474Y-75116702D02*
X64123474Y-74878607D01*
X64123474Y-74878607D02*
X64171093Y-74783369D01*
X64171093Y-74783369D02*
X64218712Y-74735750D01*
X64218712Y-74735750D02*
X64313950Y-74688131D01*
X64313950Y-74688131D02*
X64409188Y-74688131D01*
X64409188Y-74688131D02*
X64552045Y-74735750D01*
X64552045Y-74735750D02*
X65123474Y-75307178D01*
X65123474Y-75307178D02*
X65123474Y-74688131D01*
X64123474Y-74354797D02*
X64123474Y-73735750D01*
X64123474Y-73735750D02*
X64504426Y-74069083D01*
X64504426Y-74069083D02*
X64504426Y-73926226D01*
X64504426Y-73926226D02*
X64552045Y-73830988D01*
X64552045Y-73830988D02*
X64599664Y-73783369D01*
X64599664Y-73783369D02*
X64694902Y-73735750D01*
X64694902Y-73735750D02*
X64932997Y-73735750D01*
X64932997Y-73735750D02*
X65028235Y-73783369D01*
X65028235Y-73783369D02*
X65075855Y-73830988D01*
X65075855Y-73830988D02*
X65123474Y-73926226D01*
X65123474Y-73926226D02*
X65123474Y-74211940D01*
X65123474Y-74211940D02*
X65075855Y-74307178D01*
X65075855Y-74307178D02*
X65028235Y-74354797D01*
X69029474Y-90832988D02*
X69743759Y-90832988D01*
X69743759Y-90832988D02*
X69886616Y-90880607D01*
X69886616Y-90880607D02*
X69981855Y-90975845D01*
X69981855Y-90975845D02*
X70029474Y-91118702D01*
X70029474Y-91118702D02*
X70029474Y-91213940D01*
X69029474Y-90452035D02*
X69029474Y-89785369D01*
X69029474Y-89785369D02*
X70029474Y-90213940D01*
D10*
X65863743Y-144189574D02*
X65863743Y-143189574D01*
X65863743Y-143189574D02*
X66197076Y-143903859D01*
X66197076Y-143903859D02*
X66530409Y-143189574D01*
X66530409Y-143189574D02*
X66530409Y-144189574D01*
X66958981Y-143284812D02*
X67006600Y-143237193D01*
X67006600Y-143237193D02*
X67101838Y-143189574D01*
X67101838Y-143189574D02*
X67339933Y-143189574D01*
X67339933Y-143189574D02*
X67435171Y-143237193D01*
X67435171Y-143237193D02*
X67482790Y-143284812D01*
X67482790Y-143284812D02*
X67530409Y-143380050D01*
X67530409Y-143380050D02*
X67530409Y-143475288D01*
X67530409Y-143475288D02*
X67482790Y-143618145D01*
X67482790Y-143618145D02*
X66911362Y-144189574D01*
X66911362Y-144189574D02*
X67530409Y-144189574D01*
D11*
X74761321Y-98124474D02*
X74761321Y-98838759D01*
X74761321Y-98838759D02*
X74713702Y-98981616D01*
X74713702Y-98981616D02*
X74618464Y-99076855D01*
X74618464Y-99076855D02*
X74475607Y-99124474D01*
X74475607Y-99124474D02*
X74380369Y-99124474D01*
X75761321Y-99124474D02*
X75189893Y-99124474D01*
X75475607Y-99124474D02*
X75475607Y-98124474D01*
X75475607Y-98124474D02*
X75380369Y-98267331D01*
X75380369Y-98267331D02*
X75285131Y-98362569D01*
X75285131Y-98362569D02*
X75189893Y-98410188D01*
X117029474Y-103832988D02*
X117743759Y-103832988D01*
X117743759Y-103832988D02*
X117886616Y-103880607D01*
X117886616Y-103880607D02*
X117981855Y-103975845D01*
X117981855Y-103975845D02*
X118029474Y-104118702D01*
X118029474Y-104118702D02*
X118029474Y-104213940D01*
X117362807Y-102928226D02*
X118029474Y-102928226D01*
X116981855Y-103166321D02*
X117696140Y-103404416D01*
X117696140Y-103404416D02*
X117696140Y-102785369D01*
X64573416Y-67165712D02*
X64478178Y-67118093D01*
X64478178Y-67118093D02*
X64382940Y-67022855D01*
X64382940Y-67022855D02*
X64240083Y-66879997D01*
X64240083Y-66879997D02*
X64144845Y-66832378D01*
X64144845Y-66832378D02*
X64049607Y-66832378D01*
X64097226Y-67070474D02*
X64001988Y-67022855D01*
X64001988Y-67022855D02*
X63906750Y-66927616D01*
X63906750Y-66927616D02*
X63859131Y-66737140D01*
X63859131Y-66737140D02*
X63859131Y-66403807D01*
X63859131Y-66403807D02*
X63906750Y-66213331D01*
X63906750Y-66213331D02*
X64001988Y-66118093D01*
X64001988Y-66118093D02*
X64097226Y-66070474D01*
X64097226Y-66070474D02*
X64287702Y-66070474D01*
X64287702Y-66070474D02*
X64382940Y-66118093D01*
X64382940Y-66118093D02*
X64478178Y-66213331D01*
X64478178Y-66213331D02*
X64525797Y-66403807D01*
X64525797Y-66403807D02*
X64525797Y-66737140D01*
X64525797Y-66737140D02*
X64478178Y-66927616D01*
X64478178Y-66927616D02*
X64382940Y-67022855D01*
X64382940Y-67022855D02*
X64287702Y-67070474D01*
X64287702Y-67070474D02*
X64097226Y-67070474D01*
X64906750Y-66165712D02*
X64954369Y-66118093D01*
X64954369Y-66118093D02*
X65049607Y-66070474D01*
X65049607Y-66070474D02*
X65287702Y-66070474D01*
X65287702Y-66070474D02*
X65382940Y-66118093D01*
X65382940Y-66118093D02*
X65430559Y-66165712D01*
X65430559Y-66165712D02*
X65478178Y-66260950D01*
X65478178Y-66260950D02*
X65478178Y-66356188D01*
X65478178Y-66356188D02*
X65430559Y-66499045D01*
X65430559Y-66499045D02*
X64859131Y-67070474D01*
X64859131Y-67070474D02*
X65478178Y-67070474D01*
X103761321Y-98624474D02*
X103761321Y-99338759D01*
X103761321Y-99338759D02*
X103713702Y-99481616D01*
X103713702Y-99481616D02*
X103618464Y-99576855D01*
X103618464Y-99576855D02*
X103475607Y-99624474D01*
X103475607Y-99624474D02*
X103380369Y-99624474D01*
X104189893Y-98719712D02*
X104237512Y-98672093D01*
X104237512Y-98672093D02*
X104332750Y-98624474D01*
X104332750Y-98624474D02*
X104570845Y-98624474D01*
X104570845Y-98624474D02*
X104666083Y-98672093D01*
X104666083Y-98672093D02*
X104713702Y-98719712D01*
X104713702Y-98719712D02*
X104761321Y-98814950D01*
X104761321Y-98814950D02*
X104761321Y-98910188D01*
X104761321Y-98910188D02*
X104713702Y-99053045D01*
X104713702Y-99053045D02*
X104142274Y-99624474D01*
X104142274Y-99624474D02*
X104761321Y-99624474D01*
D12*
X70234252Y-76084226D02*
X69805680Y-76384226D01*
X70234252Y-76598512D02*
X69334252Y-76598512D01*
X69334252Y-76598512D02*
X69334252Y-76255655D01*
X69334252Y-76255655D02*
X69377109Y-76169940D01*
X69377109Y-76169940D02*
X69419966Y-76127083D01*
X69419966Y-76127083D02*
X69505680Y-76084226D01*
X69505680Y-76084226D02*
X69634252Y-76084226D01*
X69634252Y-76084226D02*
X69719966Y-76127083D01*
X69719966Y-76127083D02*
X69762823Y-76169940D01*
X69762823Y-76169940D02*
X69805680Y-76255655D01*
X69805680Y-76255655D02*
X69805680Y-76598512D01*
X69419966Y-75741369D02*
X69377109Y-75698512D01*
X69377109Y-75698512D02*
X69334252Y-75612798D01*
X69334252Y-75612798D02*
X69334252Y-75398512D01*
X69334252Y-75398512D02*
X69377109Y-75312798D01*
X69377109Y-75312798D02*
X69419966Y-75269940D01*
X69419966Y-75269940D02*
X69505680Y-75227083D01*
X69505680Y-75227083D02*
X69591395Y-75227083D01*
X69591395Y-75227083D02*
X69719966Y-75269940D01*
X69719966Y-75269940D02*
X70234252Y-75784226D01*
X70234252Y-75784226D02*
X70234252Y-75227083D01*
X69634252Y-74455655D02*
X70234252Y-74455655D01*
X69291395Y-74669940D02*
X69934252Y-74884226D01*
X69934252Y-74884226D02*
X69934252Y-74327083D01*
D11*
X90907988Y-68494474D02*
X90574655Y-68018283D01*
X90336560Y-68494474D02*
X90336560Y-67494474D01*
X90336560Y-67494474D02*
X90717512Y-67494474D01*
X90717512Y-67494474D02*
X90812750Y-67542093D01*
X90812750Y-67542093D02*
X90860369Y-67589712D01*
X90860369Y-67589712D02*
X90907988Y-67684950D01*
X90907988Y-67684950D02*
X90907988Y-67827807D01*
X90907988Y-67827807D02*
X90860369Y-67923045D01*
X90860369Y-67923045D02*
X90812750Y-67970664D01*
X90812750Y-67970664D02*
X90717512Y-68018283D01*
X90717512Y-68018283D02*
X90336560Y-68018283D01*
X91479417Y-67923045D02*
X91384179Y-67875426D01*
X91384179Y-67875426D02*
X91336560Y-67827807D01*
X91336560Y-67827807D02*
X91288941Y-67732569D01*
X91288941Y-67732569D02*
X91288941Y-67684950D01*
X91288941Y-67684950D02*
X91336560Y-67589712D01*
X91336560Y-67589712D02*
X91384179Y-67542093D01*
X91384179Y-67542093D02*
X91479417Y-67494474D01*
X91479417Y-67494474D02*
X91669893Y-67494474D01*
X91669893Y-67494474D02*
X91765131Y-67542093D01*
X91765131Y-67542093D02*
X91812750Y-67589712D01*
X91812750Y-67589712D02*
X91860369Y-67684950D01*
X91860369Y-67684950D02*
X91860369Y-67732569D01*
X91860369Y-67732569D02*
X91812750Y-67827807D01*
X91812750Y-67827807D02*
X91765131Y-67875426D01*
X91765131Y-67875426D02*
X91669893Y-67923045D01*
X91669893Y-67923045D02*
X91479417Y-67923045D01*
X91479417Y-67923045D02*
X91384179Y-67970664D01*
X91384179Y-67970664D02*
X91336560Y-68018283D01*
X91336560Y-68018283D02*
X91288941Y-68113521D01*
X91288941Y-68113521D02*
X91288941Y-68303997D01*
X91288941Y-68303997D02*
X91336560Y-68399235D01*
X91336560Y-68399235D02*
X91384179Y-68446855D01*
X91384179Y-68446855D02*
X91479417Y-68494474D01*
X91479417Y-68494474D02*
X91669893Y-68494474D01*
X91669893Y-68494474D02*
X91765131Y-68446855D01*
X91765131Y-68446855D02*
X91812750Y-68399235D01*
X91812750Y-68399235D02*
X91860369Y-68303997D01*
X91860369Y-68303997D02*
X91860369Y-68113521D01*
X91860369Y-68113521D02*
X91812750Y-68018283D01*
X91812750Y-68018283D02*
X91765131Y-67970664D01*
X91765131Y-67970664D02*
X91669893Y-67923045D01*
X118662750Y-63164474D02*
X118662750Y-62164474D01*
X118662750Y-62640664D02*
X119234178Y-62640664D01*
X119234178Y-63164474D02*
X119234178Y-62164474D01*
X119662750Y-62259712D02*
X119710369Y-62212093D01*
X119710369Y-62212093D02*
X119805607Y-62164474D01*
X119805607Y-62164474D02*
X120043702Y-62164474D01*
X120043702Y-62164474D02*
X120138940Y-62212093D01*
X120138940Y-62212093D02*
X120186559Y-62259712D01*
X120186559Y-62259712D02*
X120234178Y-62354950D01*
X120234178Y-62354950D02*
X120234178Y-62450188D01*
X120234178Y-62450188D02*
X120186559Y-62593045D01*
X120186559Y-62593045D02*
X119615131Y-63164474D01*
X119615131Y-63164474D02*
X120234178Y-63164474D01*
X66829416Y-70939712D02*
X66734178Y-70892093D01*
X66734178Y-70892093D02*
X66638940Y-70796855D01*
X66638940Y-70796855D02*
X66496083Y-70653997D01*
X66496083Y-70653997D02*
X66400845Y-70606378D01*
X66400845Y-70606378D02*
X66305607Y-70606378D01*
X66353226Y-70844474D02*
X66257988Y-70796855D01*
X66257988Y-70796855D02*
X66162750Y-70701616D01*
X66162750Y-70701616D02*
X66115131Y-70511140D01*
X66115131Y-70511140D02*
X66115131Y-70177807D01*
X66115131Y-70177807D02*
X66162750Y-69987331D01*
X66162750Y-69987331D02*
X66257988Y-69892093D01*
X66257988Y-69892093D02*
X66353226Y-69844474D01*
X66353226Y-69844474D02*
X66543702Y-69844474D01*
X66543702Y-69844474D02*
X66638940Y-69892093D01*
X66638940Y-69892093D02*
X66734178Y-69987331D01*
X66734178Y-69987331D02*
X66781797Y-70177807D01*
X66781797Y-70177807D02*
X66781797Y-70511140D01*
X66781797Y-70511140D02*
X66734178Y-70701616D01*
X66734178Y-70701616D02*
X66638940Y-70796855D01*
X66638940Y-70796855D02*
X66543702Y-70844474D01*
X66543702Y-70844474D02*
X66353226Y-70844474D01*
X67734178Y-70844474D02*
X67162750Y-70844474D01*
X67448464Y-70844474D02*
X67448464Y-69844474D01*
X67448464Y-69844474D02*
X67353226Y-69987331D01*
X67353226Y-69987331D02*
X67257988Y-70082569D01*
X67257988Y-70082569D02*
X67162750Y-70130188D01*
X185584285Y-34446009D02*
X185727142Y-34493628D01*
X185727142Y-34493628D02*
X185774761Y-34541247D01*
X185774761Y-34541247D02*
X185822380Y-34636485D01*
X185822380Y-34636485D02*
X185822380Y-34779342D01*
X185822380Y-34779342D02*
X185774761Y-34874580D01*
X185774761Y-34874580D02*
X185727142Y-34922200D01*
X185727142Y-34922200D02*
X185631904Y-34969819D01*
X185631904Y-34969819D02*
X185250952Y-34969819D01*
X185250952Y-34969819D02*
X185250952Y-33969819D01*
X185250952Y-33969819D02*
X185584285Y-33969819D01*
X185584285Y-33969819D02*
X185679523Y-34017438D01*
X185679523Y-34017438D02*
X185727142Y-34065057D01*
X185727142Y-34065057D02*
X185774761Y-34160295D01*
X185774761Y-34160295D02*
X185774761Y-34255533D01*
X185774761Y-34255533D02*
X185727142Y-34350771D01*
X185727142Y-34350771D02*
X185679523Y-34398390D01*
X185679523Y-34398390D02*
X185584285Y-34446009D01*
X185584285Y-34446009D02*
X185250952Y-34446009D01*
X186108095Y-33969819D02*
X186679523Y-33969819D01*
X186393809Y-34969819D02*
X186393809Y-33969819D01*
X187536666Y-34969819D02*
X186965238Y-34969819D01*
X187250952Y-34969819D02*
X187250952Y-33969819D01*
X187250952Y-33969819D02*
X187155714Y-34112676D01*
X187155714Y-34112676D02*
X187060476Y-34207914D01*
X187060476Y-34207914D02*
X186965238Y-34255533D01*
D10*
X26324655Y-85834655D02*
X28324655Y-85834655D01*
X28324655Y-87834655D01*
X26324655Y-87834655D01*
X26324655Y-85834655D01*
X132250000Y-35500000D02*
X159750000Y-35500000D01*
X159750000Y-43500000D01*
X132250000Y-43500000D01*
X132250000Y-35500000D01*
D13*
X184500000Y-146345000D02*
X183500000Y-146345000D01*
X184500000Y-145145000D02*
X184500000Y-146345000D01*
X183500000Y-146345000D02*
X183500000Y-160145000D01*
X183500000Y-146345000D02*
X167500000Y-146345000D01*
X167500000Y-160145000D02*
X183500000Y-160145000D01*
X167500000Y-146345000D02*
X167500000Y-160145000D01*
X167500000Y-146345000D02*
X156500000Y-146345000D01*
X156500000Y-146345000D02*
X156500000Y-160145000D01*
X156500000Y-146345000D02*
X140500000Y-146345000D01*
X140500000Y-160145000D02*
X156500000Y-160145000D01*
X140500000Y-146345000D02*
X140500000Y-160145000D01*
X140500000Y-146345000D02*
X139500000Y-146345000D01*
X139500000Y-146345000D02*
X139500000Y-145145000D01*
X139500000Y-145145000D02*
X184500000Y-145145000D01*
D14*
X78164655Y-76289655D02*
X78164655Y-74905655D01*
X78164655Y-76289655D02*
X79547655Y-76289655D01*
X78404655Y-66149655D02*
X83244655Y-66149655D01*
X78404655Y-76049655D02*
X78404655Y-66149655D01*
X78404655Y-76049655D02*
X83244655Y-76049655D01*
X80189655Y-69069655D02*
X80189655Y-73129655D01*
X80189655Y-71776322D02*
X81459655Y-71776322D01*
X80189655Y-73129655D02*
X81459655Y-73129655D01*
X80309655Y-73129655D02*
X80309655Y-71776322D01*
X80429655Y-73129655D02*
X80429655Y-71776322D01*
X80549655Y-73129655D02*
X80549655Y-71776322D01*
X80669655Y-73129655D02*
X80669655Y-71776322D01*
X80789655Y-73129655D02*
X80789655Y-71776322D01*
X80909655Y-73129655D02*
X80909655Y-71776322D01*
X81029655Y-73129655D02*
X81029655Y-71776322D01*
X81149655Y-73129655D02*
X81149655Y-71776322D01*
X81269655Y-73129655D02*
X81269655Y-71776322D01*
X81389655Y-73129655D02*
X81389655Y-71776322D01*
X81459655Y-69069655D02*
X80189655Y-69069655D01*
X81459655Y-73129655D02*
X81459655Y-69069655D01*
X83244655Y-76049655D02*
X83244655Y-66149655D01*
X111514655Y-79479655D02*
X111514655Y-81099655D01*
X111878757Y-81099655D02*
X111514655Y-81099655D01*
X112878757Y-81099655D02*
X112770553Y-81099655D01*
X113878757Y-81099655D02*
X113770553Y-81099655D01*
X114878757Y-81099655D02*
X114770553Y-81099655D01*
X115824655Y-79479655D02*
X111514655Y-79479655D01*
X115824655Y-79479655D02*
X115824655Y-79894655D01*
X117134655Y-80579655D02*
X117134655Y-81264655D01*
X117134655Y-81264655D02*
X116324655Y-81264655D01*
D10*
X114173267Y-141232155D02*
X122673267Y-139232155D01*
X121673267Y-142534931D02*
X122173267Y-141232155D01*
X121673267Y-142534931D02*
X122673267Y-143732155D01*
X122673267Y-143732155D02*
X121673265Y-142534929D01*
X109173267Y-138232155D02*
X119173267Y-138232155D01*
X119173267Y-144232155D01*
X109173267Y-144232155D01*
X109173267Y-138232155D01*
X122673267Y-139232155D02*
G75*
G02*
X121673267Y-142534931I-1000000J-1500000D01*
G01*
X115673267Y-141232155D02*
G75*
G02*
X112673267Y-141232155I-1500000J0D01*
G01*
X112673267Y-141232155D02*
G75*
G02*
X115673267Y-141232155I1500000J0D01*
G01*
D14*
X71804655Y-74279655D02*
X72244655Y-74279655D01*
X71804655Y-75299655D02*
X72244655Y-75299655D01*
X71704655Y-66179655D02*
X72144655Y-66179655D01*
X71704655Y-67199655D02*
X72144655Y-67199655D01*
D11*
X97349655Y-65814655D02*
X97349655Y-65959655D01*
X97349655Y-70964655D02*
X97349655Y-70819655D01*
X101499655Y-65814655D02*
X97349655Y-65814655D01*
X101499655Y-65814655D02*
X101499655Y-65959655D01*
X101499655Y-70914655D02*
X102899655Y-70914655D01*
X101499655Y-70964655D02*
X97349655Y-70964655D01*
X101499655Y-70964655D02*
X101499655Y-70914655D01*
D14*
X91694655Y-73719655D02*
X91694655Y-72389655D01*
X93024655Y-73719655D02*
X91694655Y-73719655D01*
X94294655Y-71059655D02*
X96894655Y-71059655D01*
X94294655Y-73719655D02*
X94294655Y-71059655D01*
X94294655Y-73719655D02*
X96894655Y-73719655D01*
X96894655Y-73719655D02*
X96894655Y-71059655D01*
X69434655Y-73279655D02*
X69434655Y-68079655D01*
X72034655Y-70679655D02*
X72034655Y-73279655D01*
X72034655Y-73279655D02*
X69434655Y-73279655D01*
X74634655Y-68079655D02*
X69434655Y-68079655D01*
X74634655Y-70679655D02*
X72034655Y-70679655D01*
X74634655Y-70679655D02*
X74634655Y-68079655D01*
X74634655Y-71949655D02*
X74634655Y-73279655D01*
X74634655Y-73279655D02*
X73304655Y-73279655D01*
X93504655Y-65879655D02*
X93944655Y-65879655D01*
X93504655Y-66899655D02*
X93944655Y-66899655D01*
X99204655Y-71779655D02*
X99644655Y-71779655D01*
X99204655Y-72799655D02*
X99644655Y-72799655D01*
X93504655Y-69179655D02*
X93944655Y-69179655D01*
X93504655Y-70199655D02*
X93944655Y-70199655D01*
X65714655Y-74669655D02*
X65714655Y-75109655D01*
X66734655Y-74669655D02*
X66734655Y-75109655D01*
X64514655Y-89689655D02*
X64514655Y-91309655D01*
X64878757Y-91309655D02*
X64514655Y-91309655D01*
X65878757Y-91309655D02*
X65770553Y-91309655D01*
X66824655Y-89689655D02*
X64514655Y-89689655D01*
X66824655Y-89689655D02*
X66824655Y-90104655D01*
X68134655Y-90789655D02*
X68134655Y-91474655D01*
X68134655Y-91474655D02*
X67324655Y-91474655D01*
D10*
X66673267Y-141232155D02*
X75173267Y-139232155D01*
X74173267Y-142534931D02*
X74673267Y-141232155D01*
X74173267Y-142534931D02*
X75173267Y-143732155D01*
X75173267Y-143732155D02*
X74173265Y-142534929D01*
X61673267Y-138232155D02*
X71673267Y-138232155D01*
X71673267Y-144232155D01*
X61673267Y-144232155D01*
X61673267Y-138232155D01*
X75173267Y-139232155D02*
G75*
G02*
X74173267Y-142534931I-1000000J-1500000D01*
G01*
X68173267Y-141232155D02*
G75*
G02*
X65173267Y-141232155I-1500000J0D01*
G01*
X65173267Y-141232155D02*
G75*
G02*
X68173267Y-141232155I1500000J0D01*
G01*
D14*
X72154655Y-100789655D02*
X72154655Y-104789655D01*
X72444655Y-99759655D02*
X72444655Y-105779655D01*
X72444655Y-105779655D02*
X77744655Y-105779655D01*
X73024655Y-99759655D02*
X73024655Y-100359655D01*
X73024655Y-100359655D02*
X74624655Y-100359655D01*
X73824655Y-104779655D02*
X74074655Y-104249655D01*
X73824655Y-104779655D02*
X76364655Y-104779655D01*
X73824655Y-105779655D02*
X73824655Y-104779655D01*
X74074655Y-104249655D02*
X76114655Y-104249655D01*
X74074655Y-105779655D02*
X74074655Y-104779655D01*
X74624655Y-100359655D02*
X74624655Y-99759655D01*
X75564655Y-99759655D02*
X75564655Y-100359655D01*
X75564655Y-100359655D02*
X77164655Y-100359655D01*
X76114655Y-104249655D02*
X76364655Y-104779655D01*
X76114655Y-105779655D02*
X76114655Y-104779655D01*
X76364655Y-104779655D02*
X76364655Y-105779655D01*
X77164655Y-100359655D02*
X77164655Y-99759655D01*
X77744655Y-99759655D02*
X72444655Y-99759655D01*
X77744655Y-105779655D02*
X77744655Y-99759655D01*
X111514655Y-102689655D02*
X111514655Y-104309655D01*
X111878757Y-104309655D02*
X111514655Y-104309655D01*
X112878757Y-104309655D02*
X112770553Y-104309655D01*
X113878757Y-104309655D02*
X113770553Y-104309655D01*
X114824655Y-102689655D02*
X111514655Y-102689655D01*
X114824655Y-102689655D02*
X114824655Y-103104655D01*
X116134655Y-103789655D02*
X116134655Y-104474655D01*
X116134655Y-104474655D02*
X115324655Y-104474655D01*
X66474655Y-72999655D02*
X68274655Y-72999655D01*
X68274655Y-69779655D02*
X65824655Y-69779655D01*
X101154655Y-101289655D02*
X101154655Y-105289655D01*
X101444655Y-100259655D02*
X101444655Y-106279655D01*
X101444655Y-106279655D02*
X106744655Y-106279655D01*
X102024655Y-100259655D02*
X102024655Y-100859655D01*
X102024655Y-100859655D02*
X103624655Y-100859655D01*
X102824655Y-105279655D02*
X103074655Y-104749655D01*
X102824655Y-105279655D02*
X105364655Y-105279655D01*
X102824655Y-106279655D02*
X102824655Y-105279655D01*
X103074655Y-104749655D02*
X105114655Y-104749655D01*
X103074655Y-106279655D02*
X103074655Y-105279655D01*
X103624655Y-100859655D02*
X103624655Y-100259655D01*
X104564655Y-100259655D02*
X104564655Y-100859655D01*
X104564655Y-100859655D02*
X106164655Y-100859655D01*
X105114655Y-104749655D02*
X105364655Y-105279655D01*
X105114655Y-106279655D02*
X105114655Y-105279655D01*
X105364655Y-105279655D02*
X105364655Y-106279655D01*
X106164655Y-100859655D02*
X106164655Y-100259655D01*
X106744655Y-100259655D02*
X101444655Y-100259655D01*
X106744655Y-106279655D02*
X106744655Y-100259655D01*
X68014655Y-74669655D02*
X68014655Y-75109655D01*
X69034655Y-74669655D02*
X69034655Y-75109655D01*
X93504655Y-67479655D02*
X93944655Y-67479655D01*
X93504655Y-68499655D02*
X93944655Y-68499655D01*
X66164655Y-66309655D02*
X66164655Y-67239655D01*
X66164655Y-66309655D02*
X67624655Y-66309655D01*
X66164655Y-69469655D02*
X66164655Y-68539655D01*
X66164655Y-69469655D02*
X68324655Y-69469655D01*
D13*
X180195000Y-65300000D02*
X182195000Y-65300000D01*
X181195000Y-64300000D02*
X181195000Y-66300000D01*
X183345000Y-35455000D02*
X261045000Y-35455000D01*
X183345000Y-95145000D02*
X183345000Y-35455000D01*
X261045000Y-35455000D02*
X261045000Y-95145000D01*
X261045000Y-95145000D02*
X183345000Y-95145000D01*
X262195000Y-65300000D02*
X264195000Y-65300000D01*
D15*
X122999995Y-111005236D02*
G75*
G02*
X120000000Y-113999945I-2999951J5247D01*
G01*
X61000000Y-114000000D02*
X120000000Y-114000000D01*
X120000000Y-58000000D02*
G75*
G02*
X123000033Y-61000000I44J-2999989D01*
G01*
X123000000Y-111000000D02*
X123000000Y-61000000D01*
X120000000Y-58000000D02*
X61000000Y-58000000D01*
X58000000Y-61000000D02*
X58000000Y-111000000D01*
X58000000Y-61000000D02*
G75*
G02*
X61000000Y-57999945I3000044J11D01*
G01*
X61000000Y-114000000D02*
G75*
G02*
X58000033Y-111000000I44J3000011D01*
G01*
M02*
