G04 #@! TF.GenerationSoftware,KiCad,Pcbnew,9.0.4-9.0.4-0~ubuntu22.04.1*
G04 #@! TF.CreationDate,2025-09-06T14:27:40-05:00*
G04 #@! TF.ProjectId,Lab1_PCB,4c616231-5f50-4434-922e-6b696361645f,rev?*
G04 #@! TF.SameCoordinates,Original*
G04 #@! TF.FileFunction,Copper,L1,Top*
G04 #@! TF.FilePolarity,Positive*
%FSLAX46Y46*%
G04 Gerber Fmt 4.6, Leading zero omitted, Abs format (unit mm)*
G04 Created by KiCad (PCBNEW 9.0.4-9.0.4-0~ubuntu22.04.1) date 2025-09-06 14:27:40*
%MOMM*%
%LPD*%
G01*
G04 APERTURE LIST*
G04 Aperture macros list*
%AMRoundRect*
0 Rectangle with rounded corners*
0 $1 Rounding radius*
0 $2 $3 $4 $5 $6 $7 $8 $9 X,Y pos of 4 corners*
0 Add a 4 corners polygon primitive as box body*
4,1,4,$2,$3,$4,$5,$6,$7,$8,$9,$2,$3,0*
0 Add four circle primitives for the rounded corners*
1,1,$1+$1,$2,$3*
1,1,$1+$1,$4,$5*
1,1,$1+$1,$6,$7*
1,1,$1+$1,$8,$9*
0 Add four rect primitives between the rounded corners*
20,1,$1+$1,$2,$3,$4,$5,0*
20,1,$1+$1,$4,$5,$6,$7,0*
20,1,$1+$1,$6,$7,$8,$9,0*
20,1,$1+$1,$8,$9,$2,$3,0*%
G04 Aperture macros list end*
G04 #@! TA.AperFunction,SMDPad,CuDef*
%ADD10C,1.905000*%
G04 #@! TD*
G04 #@! TA.AperFunction,SMDPad,CuDef*
%ADD11RoundRect,0.190500X-0.762000X-0.444500X0.762000X-0.444500X0.762000X0.444500X-0.762000X0.444500X0*%
G04 #@! TD*
G04 #@! TA.AperFunction,ComponentPad*
%ADD12C,1.530000*%
G04 #@! TD*
G04 #@! TA.AperFunction,ComponentPad*
%ADD13R,1.600000X1.600000*%
G04 #@! TD*
G04 #@! TA.AperFunction,ComponentPad*
%ADD14O,1.600000X1.600000*%
G04 #@! TD*
G04 #@! TA.AperFunction,ComponentPad*
%ADD15R,0.850000X0.850000*%
G04 #@! TD*
G04 #@! TA.AperFunction,ComponentPad*
%ADD16O,0.850000X0.850000*%
G04 #@! TD*
G04 #@! TA.AperFunction,WasherPad*
%ADD17C,3.000000*%
G04 #@! TD*
G04 #@! TA.AperFunction,SMDPad,CuDef*
%ADD18R,0.845000X1.000000*%
G04 #@! TD*
G04 #@! TA.AperFunction,SMDPad,CuDef*
%ADD19R,1.550000X0.600000*%
G04 #@! TD*
G04 #@! TA.AperFunction,ComponentPad*
%ADD20R,1.700000X1.700000*%
G04 #@! TD*
G04 #@! TA.AperFunction,ComponentPad*
%ADD21O,1.700000X1.700000*%
G04 #@! TD*
G04 #@! TA.AperFunction,SMDPad,CuDef*
%ADD22R,1.000000X0.845000*%
G04 #@! TD*
G04 #@! TA.AperFunction,ComponentPad*
%ADD23RoundRect,0.250000X-0.620000X-0.845000X0.620000X-0.845000X0.620000X0.845000X-0.620000X0.845000X0*%
G04 #@! TD*
G04 #@! TA.AperFunction,ComponentPad*
%ADD24O,1.740000X2.190000*%
G04 #@! TD*
G04 #@! TA.AperFunction,SMDPad,CuDef*
%ADD25R,1.060000X0.650000*%
G04 #@! TD*
G04 #@! TA.AperFunction,SMDPad,CuDef*
%ADD26R,0.900000X0.800000*%
G04 #@! TD*
G04 #@! TA.AperFunction,ComponentPad*
%ADD27C,2.400000*%
G04 #@! TD*
G04 #@! TA.AperFunction,Conductor*
%ADD28C,0.150000*%
G04 #@! TD*
G04 #@! TA.AperFunction,Conductor*
%ADD29C,0.250000*%
G04 #@! TD*
G04 #@! TA.AperFunction,Conductor*
%ADD30C,1.000000*%
G04 #@! TD*
G04 #@! TA.AperFunction,Conductor*
%ADD31C,0.600000*%
G04 #@! TD*
G04 #@! TA.AperFunction,Profile*
%ADD32C,0.100000*%
G04 #@! TD*
G04 APERTURE END LIST*
D10*
X27324655Y-95834655D03*
X27324655Y-90834655D03*
X27324655Y-93334655D03*
D11*
X148000000Y-36000000D03*
X150000000Y-36000000D03*
X146000000Y-36000000D03*
X144000000Y-36000000D03*
X142000000Y-36000000D03*
D12*
X165810000Y-140875000D03*
X163270000Y-140875000D03*
X160730000Y-140875000D03*
X158190000Y-140875000D03*
D13*
X80824655Y-74909655D03*
D14*
X80824655Y-67289655D03*
D15*
X116324655Y-80579655D03*
D16*
X115324655Y-80579655D03*
X114324655Y-80579655D03*
X113324655Y-80579655D03*
X112324655Y-80579655D03*
D17*
X119354655Y-111599655D03*
D11*
X113173267Y-138732155D03*
X115173267Y-138732155D03*
D18*
X71062155Y-74789655D03*
X72987155Y-74789655D03*
X70962155Y-66689655D03*
X72887155Y-66689655D03*
D19*
X102124655Y-70294655D03*
X102124655Y-69024655D03*
X102124655Y-67754655D03*
X102124655Y-66484655D03*
X96724655Y-66484655D03*
X96724655Y-67754655D03*
X96724655Y-69024655D03*
X96724655Y-70294655D03*
D20*
X93024655Y-72389655D03*
D21*
X95564655Y-72389655D03*
D17*
X61364655Y-111609655D03*
D20*
X73304655Y-71949655D03*
D21*
X70764655Y-71949655D03*
X73304655Y-69409655D03*
X70764655Y-69409655D03*
D18*
X92762155Y-66389655D03*
X94687155Y-66389655D03*
D17*
X61364655Y-62599655D03*
D18*
X98462155Y-72289655D03*
X100387155Y-72289655D03*
X92762155Y-69689655D03*
X94687155Y-69689655D03*
D22*
X66224655Y-73927155D03*
X66224655Y-75852155D03*
D15*
X67324655Y-90789655D03*
D16*
X66324655Y-90789655D03*
X65324655Y-90789655D03*
D11*
X65673267Y-138732155D03*
X67673267Y-138732155D03*
D23*
X73824655Y-102789655D03*
D24*
X76364655Y-102789655D03*
D15*
X115324655Y-103789655D03*
D16*
X114324655Y-103789655D03*
X113324655Y-103789655D03*
X112324655Y-103789655D03*
D25*
X66274655Y-70439655D03*
X66274655Y-71389655D03*
X66274655Y-72339655D03*
X68474655Y-72339655D03*
X68474655Y-71389655D03*
X68474655Y-70439655D03*
D23*
X102824655Y-103289655D03*
D24*
X105364655Y-103289655D03*
D22*
X68524655Y-73927155D03*
X68524655Y-75852155D03*
D18*
X92762155Y-67989655D03*
X94687155Y-67989655D03*
D17*
X119364655Y-62619655D03*
D21*
X114504655Y-61339655D03*
X114504655Y-63879655D03*
X111964655Y-61339655D03*
X111964655Y-63879655D03*
X109424655Y-61339655D03*
X109424655Y-63879655D03*
X106884655Y-61339655D03*
X106884655Y-63879655D03*
X104344655Y-61339655D03*
X104344655Y-63879655D03*
X101804655Y-61339655D03*
X101804655Y-63879655D03*
X99264655Y-61339655D03*
X99264655Y-63879655D03*
X96724655Y-61339655D03*
X96724655Y-63879655D03*
X94184655Y-61339655D03*
X94184655Y-63879655D03*
X91644655Y-61339655D03*
X91644655Y-63879655D03*
X89104655Y-61339655D03*
X89104655Y-63879655D03*
X86564655Y-61339655D03*
X86564655Y-63879655D03*
X84024655Y-61339655D03*
X84024655Y-63879655D03*
X81484655Y-61339655D03*
X81484655Y-63879655D03*
X78944655Y-61339655D03*
X78944655Y-63879655D03*
X76404655Y-61339655D03*
X76404655Y-63879655D03*
X73864655Y-61339655D03*
X73864655Y-63879655D03*
X71324655Y-61339655D03*
X71324655Y-63879655D03*
X68784655Y-61339655D03*
X68784655Y-63879655D03*
X66244655Y-61339655D03*
D20*
X66244655Y-63879655D03*
D26*
X67924655Y-68839655D03*
X67924655Y-66939655D03*
X65924655Y-67889655D03*
D27*
X185545000Y-46000000D03*
X258445000Y-46000000D03*
X185545000Y-65300000D03*
X258445000Y-65300000D03*
X185545000Y-84600000D03*
X258445000Y-84600000D03*
D28*
X69924655Y-70689655D02*
X70524655Y-70689655D01*
X70524655Y-70689655D02*
X70764655Y-70449655D01*
X71890655Y-66038060D02*
X69732250Y-63879655D01*
X69732250Y-63879655D02*
X68784655Y-63879655D01*
X110838655Y-64346060D02*
X110838655Y-62753655D01*
X116324655Y-80579655D02*
X122540655Y-74363655D01*
X65324655Y-90789655D02*
X65324655Y-76752155D01*
X105364655Y-77267155D02*
X100387155Y-72289655D01*
X99511655Y-66832250D02*
X101338250Y-65005655D01*
X100390655Y-61806060D02*
X100390655Y-60873250D01*
X80324655Y-60907250D02*
X80324655Y-62719655D01*
X108010655Y-63413250D02*
X107351060Y-62753655D01*
D29*
X66274655Y-72339655D02*
X66224655Y-72389655D01*
X66224655Y-72389655D02*
X66224655Y-73789655D01*
D28*
X102930655Y-63413250D02*
X102271060Y-62753655D01*
X106418250Y-62753655D02*
X105470655Y-61806060D01*
X82898655Y-62753655D02*
X84024655Y-63879655D01*
X102930655Y-60873250D02*
X101920060Y-59862655D01*
D29*
X69124655Y-68339655D02*
X68674655Y-67889655D01*
X68674655Y-67889655D02*
X67074655Y-67889655D01*
X69124655Y-69989655D02*
X69124655Y-68339655D01*
D28*
X75424655Y-67289655D02*
X73304655Y-69409655D01*
X114324655Y-84256267D02*
X108010655Y-77942267D01*
X81720250Y-59511655D02*
X80324655Y-60907250D01*
X115981655Y-61224250D02*
X114971060Y-60213655D01*
X114971060Y-60213655D02*
X113090655Y-60213655D01*
X100390655Y-60873250D02*
X99731060Y-60213655D01*
X85150655Y-60213655D02*
X84024655Y-61339655D01*
X104811060Y-62753655D02*
X103878250Y-62753655D01*
X103878250Y-62753655D02*
X102930655Y-61806060D01*
X65623655Y-76453155D02*
X66224655Y-75852155D01*
X115981655Y-79419044D02*
X115981655Y-61224250D01*
X95964655Y-72289655D02*
X95564655Y-72689655D01*
X112268250Y-59443655D02*
X110838655Y-60873250D01*
X122540655Y-61304112D02*
X120680198Y-59443655D01*
X113090655Y-65293655D02*
X114504655Y-63879655D01*
X112324655Y-80579655D02*
X113090655Y-79813655D01*
D30*
X73374655Y-74789655D02*
X73374655Y-72019655D01*
D29*
X73304655Y-66719655D02*
X73274655Y-66689655D01*
D28*
X102930655Y-64346060D02*
X102930655Y-63413250D01*
D29*
X67925415Y-69488895D02*
X67424655Y-69989655D01*
X67774655Y-72339655D02*
X68474655Y-72339655D01*
D30*
X70674655Y-74789655D02*
X70674655Y-72039655D01*
D28*
X115025655Y-104080019D02*
X114445019Y-104660655D01*
X98074655Y-72289655D02*
X98074655Y-69339655D01*
D29*
X68474655Y-73739655D02*
X68524655Y-73789655D01*
D28*
X93988655Y-68913655D02*
X93988655Y-66141655D01*
X95673655Y-68448655D02*
X95208655Y-68913655D01*
X96724655Y-66484655D02*
X94782155Y-66484655D01*
X99264655Y-63879655D02*
X99264655Y-65573055D01*
X98074655Y-69339655D02*
X97759655Y-69024655D01*
X97759655Y-69024655D02*
X96724655Y-69024655D01*
X93988655Y-66141655D02*
X92852655Y-65005655D01*
X99160655Y-81839344D02*
X99160655Y-69833655D01*
X76364655Y-102789655D02*
X65623655Y-92048655D01*
X92624655Y-67989655D02*
X92624655Y-69689655D01*
X99731060Y-60213655D02*
X85150655Y-60213655D01*
X102271060Y-65005655D02*
X102930655Y-64346060D01*
X113090655Y-63701250D02*
X113090655Y-64346060D01*
X115630655Y-63413250D02*
X114971060Y-62753655D01*
X70764655Y-70449655D02*
X70764655Y-69409655D01*
X68474655Y-71389655D02*
X69224655Y-71389655D01*
X102930655Y-61806060D02*
X102930655Y-60873250D01*
D29*
X70674655Y-72039655D02*
X70764655Y-71949655D01*
D28*
X115324655Y-103789655D02*
X114453655Y-104660655D01*
X105364655Y-103289655D02*
X105364655Y-77267155D01*
X65324655Y-76752155D02*
X66224655Y-75852155D01*
X113324655Y-80579655D02*
X115025655Y-82280655D01*
X64623655Y-65500655D02*
X66244655Y-63879655D01*
X87690655Y-64058060D02*
X87690655Y-62465655D01*
X105470655Y-60873250D02*
X104109060Y-59511655D01*
X107351060Y-62753655D02*
X106418250Y-62753655D01*
D29*
X66274655Y-70439655D02*
X66274655Y-71389655D01*
X68474655Y-70439655D02*
X68674655Y-70439655D01*
D28*
X80824655Y-67289655D02*
X75424655Y-67289655D01*
X102271060Y-62753655D02*
X101338250Y-62753655D01*
X102824655Y-103289655D02*
X99511655Y-99976655D01*
X115324655Y-80579655D02*
X115324655Y-80076043D01*
X114971060Y-62753655D02*
X114038250Y-62753655D01*
X115630655Y-79273655D02*
X114324655Y-80579655D01*
X115630655Y-79273655D02*
X115630655Y-63413250D01*
X113090655Y-64346060D02*
X112431060Y-65005655D01*
X105470655Y-63413250D02*
X104811060Y-62753655D01*
X113324655Y-83752655D02*
X105470655Y-75898655D01*
D29*
X68474655Y-72339655D02*
X68474655Y-73739655D01*
D28*
X65623655Y-92048655D02*
X65623655Y-76453155D01*
X76839344Y-104160655D02*
X99160655Y-81839344D01*
X99160655Y-69833655D02*
X97775655Y-68448655D01*
X96724655Y-67754655D02*
X94922155Y-67754655D01*
X115025655Y-82280655D02*
X115025655Y-104080019D01*
X64623655Y-95804459D02*
X64623655Y-65500655D01*
X96724655Y-70294655D02*
X96019655Y-70294655D01*
D29*
X67424655Y-69989655D02*
X67424655Y-71989655D01*
X66274655Y-71389655D02*
X66274655Y-72339655D01*
D28*
X92852655Y-65005655D02*
X88638250Y-65005655D01*
X75195655Y-104160655D02*
X76839344Y-104160655D01*
X114453655Y-104660655D02*
X73479851Y-104660655D01*
X114445019Y-104660655D02*
X73479851Y-104660655D01*
X71890655Y-86223655D02*
X71890655Y-66038060D01*
X67324655Y-90789655D02*
X71890655Y-86223655D01*
X122540655Y-74363655D02*
X122540655Y-61304112D01*
X98074655Y-72289655D02*
X95964655Y-72289655D01*
X96724655Y-69024655D02*
X96089655Y-69024655D01*
X113090655Y-79813655D02*
X113090655Y-65293655D01*
X96019655Y-70294655D02*
X95524655Y-70789655D01*
X95524655Y-70789655D02*
X93524655Y-70789655D01*
D29*
X68674655Y-70439655D02*
X69124655Y-69989655D01*
D28*
X104109060Y-59511655D02*
X81720250Y-59511655D01*
X66324655Y-90789655D02*
X66324655Y-79527155D01*
X69224655Y-71389655D02*
X69924655Y-70689655D01*
X112324655Y-103789655D02*
X112324655Y-84227155D01*
X94824655Y-69689655D02*
X95124655Y-69689655D01*
X110838655Y-61806060D02*
X111498250Y-62465655D01*
X120680198Y-59443655D02*
X112268250Y-59443655D01*
X73824655Y-102789655D02*
X75195655Y-104160655D01*
X97775655Y-68448655D02*
X95673655Y-68448655D01*
X99511655Y-99976655D02*
X99511655Y-66832250D01*
X101338250Y-62753655D02*
X100390655Y-61806060D01*
X111498250Y-62465655D02*
X112652266Y-62465655D01*
X110838655Y-60873250D02*
X110838655Y-61806060D01*
D29*
X67925415Y-68839655D02*
X67925415Y-69488895D01*
X67424655Y-71989655D02*
X67774655Y-72339655D01*
D28*
X96089655Y-69024655D02*
X95424655Y-69689655D01*
X95424655Y-69689655D02*
X94824655Y-69689655D01*
X108010655Y-77942267D02*
X108010655Y-63413250D01*
X80324655Y-62719655D02*
X81484655Y-63879655D01*
X99264655Y-61339655D02*
X99174655Y-61339655D01*
X99264655Y-61339655D02*
X100543615Y-62618615D01*
X105470655Y-75898655D02*
X105470655Y-63413250D01*
X82898655Y-60873250D02*
X82898655Y-62753655D01*
X114324655Y-103789655D02*
X114324655Y-84256267D01*
X105470655Y-61806060D02*
X105470655Y-60873250D01*
X73479851Y-104660655D02*
X64623655Y-95804459D01*
X78524655Y-69689655D02*
X76264655Y-71949655D01*
X76264655Y-71949655D02*
X73304655Y-71949655D01*
X101338250Y-65005655D02*
X102271060Y-65005655D01*
X66324655Y-79527155D02*
X71062155Y-74789655D01*
X83909250Y-59862655D02*
X82898655Y-60873250D01*
X113324655Y-103789655D02*
X113324655Y-83752655D01*
X94959655Y-67854655D02*
X94824655Y-67989655D01*
X95208655Y-68913655D02*
X93988655Y-68913655D01*
X88638250Y-65005655D02*
X87690655Y-64058060D01*
X100543615Y-65150075D02*
X97939035Y-67754655D01*
X97939035Y-67754655D02*
X96724655Y-67754655D01*
X101920060Y-59862655D02*
X83909250Y-59862655D01*
X112431060Y-65005655D02*
X111498250Y-65005655D01*
X111498250Y-65005655D02*
X110838655Y-64346060D01*
X113778266Y-61339655D02*
X114504655Y-61339655D01*
X112652266Y-62465655D02*
X113778266Y-61339655D01*
D29*
X67074655Y-67889655D02*
X65824655Y-67889655D01*
X73304655Y-69409655D02*
X73304655Y-66719655D01*
D28*
X113090655Y-60213655D02*
X111964655Y-61339655D01*
X115324655Y-80076043D02*
X115981655Y-79419044D01*
X94782155Y-66484655D02*
X94687155Y-66389655D01*
X98353055Y-66484655D02*
X96724655Y-66484655D01*
D31*
X68024655Y-66939655D02*
X68024655Y-66889655D01*
D28*
X73374655Y-72019655D02*
X73304655Y-71949655D01*
X100543615Y-62618615D02*
X100543615Y-65150075D01*
X94922155Y-67754655D02*
X94687155Y-67989655D01*
X92624655Y-69689655D02*
X78524655Y-69689655D01*
X92624655Y-66389655D02*
X92624655Y-67989655D01*
X95019655Y-66584655D02*
X94824655Y-66389655D01*
X99264655Y-65573055D02*
X98353055Y-66484655D01*
X87690655Y-62465655D02*
X86564655Y-61339655D01*
X93524655Y-70789655D02*
X92624655Y-69889655D01*
X92624655Y-69889655D02*
X92624655Y-69689655D01*
X110838655Y-62753655D02*
X109424655Y-61339655D01*
X114038250Y-62753655D02*
X113090655Y-63701250D01*
X112324655Y-84227155D02*
X100387155Y-72289655D01*
D32*
X122999995Y-111005236D02*
G75*
G02*
X120000000Y-113999945I-2999951J5247D01*
G01*
X61000000Y-114000000D02*
X120000000Y-114000000D01*
X120000000Y-58000000D02*
G75*
G02*
X123000033Y-61000000I44J-2999989D01*
G01*
X123000000Y-111000000D02*
X123000000Y-61000000D01*
X120000000Y-58000000D02*
X61000000Y-58000000D01*
X58000000Y-61000000D02*
X58000000Y-111000000D01*
X58000000Y-61000000D02*
G75*
G02*
X61000000Y-57999945I3000044J11D01*
G01*
X61000000Y-114000000D02*
G75*
G02*
X58000033Y-111000000I44J3000011D01*
G01*
M02*
